<svg xmlns="http://www.w3.org/2000/svg" xmlns:xlink="http://www.w3.org/1999/xlink" xml:space="preserve" width="238" height="204"><g id="Member_1_"><g id="Static_Event_1_"><g id="Base_67_"><defs><path id="SVGID_1_" d="M0 0v204h96.277a1.977 1.977 0 0 1-.277-1v-4a2 2 0 0 1 2-2h3a2 2 0 0 1 2 2v4c0 .366-.105.705-.277 1h10.555a1.977 1.977 0 0 1-.277-1v-4a2 2 0 0 1 2-2h3a2 2 0 0 1 2 2v4c0 .366-.105.705-.277 1h10.555a1.977 1.977 0 0 1-.277-1v-4a2 2 0 0 1 2-2h3a2 2 0 0 1 2 2v4c0 .366-.105.705-.277 1h27.555a1.977 1.977 0 0 1-.277-1v-4a2 2 0 0 1 2-2h3a2 2 0 0 1 2 2v4c0 .366-.105.705-.277 1h27.555a1.977 1.977 0 0 1-.277-1v-4a2 2 0 0 1 2-2h3a2 2 0 0 1 2 2v4c0 .366-.105.705-.277 1H238V0H0z"/></defs><clipPath id="SVGID_2_"><use xlink:href="#SVGID_1_" overflow="visible"/></clipPath><symbol id="static-event-class" viewBox="51 187 17 17"><g clip-path="url(#SVGID_2_)"><path fill="#3D85CC" d="m63.531 195.518-2.643-1.527 1.496-5.486-6.915 6.977 2.643 1.527-1.496 5.486z"/></g></symbol><symbol id="static-event-class-inherited" viewBox="68 187 17 17"><g clip-path="url(#SVGID_2_)"><path fill="#3D85CC" d="m80.531 195.518-2.643-1.527 1.496-5.486-6.915 6.977 2.643 1.527-1.496 5.486z"/><path fill="#3D85CC" d="m73.074 200.52.958-3.511-2.643-1.527 4.956-5.001.539-1.976-6.915 6.977 2.643 1.527-1.496 5.486z"/></g></symbol><symbol id="static-event-class-protected" viewBox="85 187 17 17"><g clip-path="url(#SVGID_2_)"><path fill="#3D85CC" d="m97.531 195.518-2.643-1.527 1.496-5.486-6.915 6.977 2.643 1.527-1.496 5.486z"/></g><path fill="#3D85CC" d="M100 198h-1a2 2 0 0 0-2 2v3a1 1 0 0 0 1 1h3a1 1 0 0 0 1-1v-3a2 2 0 0 0-2-2zm-.5 5a.5.5 0 1 1 0-1 .5.5 0 0 1 0 1zm1.5-2h-3v-.5a1.5 1.5 0 0 1 3 0v.5z"/></symbol><symbol id="static-event-class-protected-inherited" viewBox="102 187 17 17"><g clip-path="url(#SVGID_2_)"><path fill="#3D85CC" d="m114.531 195.518-2.643-1.527 1.496-5.486-6.915 6.977 2.643 1.527-1.496 5.486z"/><path fill="#3D85CC" d="m107.074 200.52.958-3.511-2.643-1.527 4.956-5.001.539-1.976-6.915 6.977 2.643 1.527-1.496 5.486z"/></g><path fill="#3D85CC" d="M117 198h-1a2 2 0 0 0-2 2v3a1 1 0 0 0 1 1h3a1 1 0 0 0 1-1v-3a2 2 0 0 0-2-2zm-.5 5a.5.5 0 1 1 0-1 .5.5 0 0 1 0 1zm1.5-2h-3v-.5a1.5 1.5 0 0 1 3 0v.5z"/></symbol><symbol id="static-event-private" viewBox="119 187 17 17"><g clip-path="url(#SVGID_2_)"><path fill="#A0A0A0" d="m131.531 195.518-2.643-1.527 1.496-5.486-6.915 6.977 2.643 1.527-1.496 5.486z"/></g><path fill="#A0A0A0" d="M134 198h-1a2 2 0 0 0-2 2v3a1 1 0 0 0 1 1h3a1 1 0 0 0 1-1v-3a2 2 0 0 0-2-2zm-.5 5a.5.5 0 1 1 0-1 .5.5 0 0 1 0 1zm1.5-2h-3v-.5a1.5 1.5 0 0 1 3 0v.5z"/></symbol><symbol id="static-event" viewBox="136 187 17 17"><g clip-path="url(#SVGID_2_)"><path fill="#9600FF" d="m148.531 195.518-2.643-1.527 1.496-5.486-6.915 6.977 2.643 1.527-1.496 5.486z"/></g></symbol><symbol id="static-event-protected" viewBox="153 187 17 17"><g clip-path="url(#SVGID_2_)"><path fill="#9600FF" d="m165.531 195.518-2.643-1.527 1.496-5.486-6.915 6.977 2.643 1.527-1.496 5.486z"/></g><path fill="#9600FF" d="M168 198h-1a2 2 0 0 0-2 2v3a1 1 0 0 0 1 1h3a1 1 0 0 0 1-1v-3a2 2 0 0 0-2-2zm-.5 5a.5.5 0 1 1 0-1 .5.5 0 0 1 0 1zm1.5-2h-3v-.5a1.5 1.5 0 0 1 3 0v.5z"/></symbol><symbol id="static-event-enum" viewBox="170 187 17 17"><g clip-path="url(#SVGID_2_)"><path fill="#C90" d="m182.531 195.518-2.643-1.527 1.496-5.486-6.915 6.977 2.643 1.527-1.496 5.486z"/></g></symbol><symbol id="static-event-enum-protected" viewBox="187 187 17 17"><g clip-path="url(#SVGID_2_)"><path fill="#C90" d="m199.531 195.518-2.643-1.527 1.496-5.486-6.915 6.977 2.643 1.527-1.496 5.486z"/></g><path fill="#C90" d="M202 198h-1a2 2 0 0 0-2 2v3a1 1 0 0 0 1 1h3a1 1 0 0 0 1-1v-3a2 2 0 0 0-2-2zm-.5 5a.5.5 0 1 1 0-1 .5.5 0 0 1 0 1zm1.5-2h-3v-.5a1.5 1.5 0 0 1 3 0v.5z"/></symbol><symbol id="static-event-interface" viewBox="204 187 17 17"><g clip-path="url(#SVGID_2_)"><path fill="#7DA01F" d="m216.531 195.518-2.643-1.527 1.496-5.486-6.915 6.977 2.643 1.527-1.496 5.486z"/></g></symbol><symbol id="static-event-interface-inherited" viewBox="221 187 17 17"><g clip-path="url(#SVGID_2_)"><path fill="#7DA01F" d="m233.531 195.518-2.643-1.527 1.496-5.486-6.915 6.977 2.643 1.527-1.496 5.486z"/><path fill="#7DA01F" d="m226.074 200.52.958-3.511-2.643-1.527 4.956-5.001.539-1.976-6.915 6.977 2.643 1.527-1.496 5.486z"/></g></symbol></g></g><g id="Static_method_1_"><g id="Base_66_"><defs><path id="SVGID_3_" d="M0 0v204h238V0H0zm103 186a2 2 0 0 1-2 2h-3a2 2 0 0 1-2-2v-4a2 2 0 0 1 2-2h3a2 2 0 0 1 2 2v4zm17 0a2 2 0 0 1-2 2h-3a2 2 0 0 1-2-2v-4a2 2 0 0 1 2-2h3a2 2 0 0 1 2 2v4zm17 0a2 2 0 0 1-2 2h-3a2 2 0 0 1-2-2v-4a2 2 0 0 1 2-2h3a2 2 0 0 1 2 2v4zm34 0a2 2 0 0 1-2 2h-3a2 2 0 0 1-2-2v-4a2 2 0 0 1 2-2h3a2 2 0 0 1 2 2v4zm34 0a2 2 0 0 1-2 2h-3a2 2 0 0 1-2-2v-4a2 2 0 0 1 2-2h3a2 2 0 0 1 2 2v4z"/></defs><clipPath id="SVGID_4_"><use xlink:href="#SVGID_3_" overflow="visible"/></clipPath><symbol id="static-method-class" viewBox="51 170 17 17"><g clip-path="url(#SVGID_4_)"><path fill="#3D85CC" d="M63 173h-7a2 2 0 0 0-2 2v7a2 2 0 0 0 2 2h7a2 2 0 0 0 2-2v-7a2 2 0 0 0-2-2zm-5 9v-7l4.5 3.5L58 182z"/></g></symbol><symbol id="static-method-class-inherited" viewBox="68 170 17 17"><g clip-path="url(#SVGID_4_)"><path fill="#3D85CC" d="M80 173h-7a2 2 0 0 0-2 2v7a2 2 0 0 0 2 2h7a2 2 0 0 0 2-2v-7a2 2 0 0 0-2-2zm-5 9v-7l4.5 3.5L75 182z"/></g><path fill="#3D85CC" d="M70 183v-9c0-.356.101-.687.265-.977A1.995 1.995 0 0 0 68.5 175v7c0 1.023.772 1.858 1.765 1.977A1.978 1.978 0 0 1 70 183z"/></symbol><symbol id="static-method-class-protected" viewBox="85 170 17 17"><g clip-path="url(#SVGID_4_)"><path fill="#3D85CC" d="M97 173h-7a2 2 0 0 0-2 2v7a2 2 0 0 0 2 2h7a2 2 0 0 0 2-2v-7a2 2 0 0 0-2-2zm-5 9v-7l4.5 3.5L92 182z"/></g><path fill="#3D85CC" d="M100 181h-1a2 2 0 0 0-2 2v3a1 1 0 0 0 1 1h3a1 1 0 0 0 1-1v-3a2 2 0 0 0-2-2zm-.5 5a.5.5 0 1 1 0-1 .5.5 0 0 1 0 1zm1.5-2h-3v-.5a1.5 1.5 0 0 1 3 0v.5z"/></symbol><symbol id="static-method-class-protected-inherited" viewBox="102 170 17 17"><g clip-path="url(#SVGID_4_)"><path fill="#3D85CC" d="M114 173h-7a2 2 0 0 0-2 2v7a2 2 0 0 0 2 2h7a2 2 0 0 0 2-2v-7a2 2 0 0 0-2-2zm-5 9v-7l4.5 3.5-4.5 3.5z"/></g><path fill="#3D85CC" d="M104 183v-9c0-.356.101-.687.265-.977A1.995 1.995 0 0 0 102.5 175v7c0 1.023.772 1.858 1.765 1.977A1.978 1.978 0 0 1 104 183zM117 181h-1a2 2 0 0 0-2 2v3a1 1 0 0 0 1 1h3a1 1 0 0 0 1-1v-3a2 2 0 0 0-2-2zm-.5 5a.5.5 0 1 1 0-1 .5.5 0 0 1 0 1zm1.5-2h-3v-.5a1.5 1.5 0 0 1 3 0v.5z"/></symbol><symbol id="static-method-private" viewBox="119 170 17 17"><g clip-path="url(#SVGID_4_)"><path fill="#A0A0A0" d="M131 173h-7a2 2 0 0 0-2 2v7a2 2 0 0 0 2 2h7a2 2 0 0 0 2-2v-7a2 2 0 0 0-2-2zm-5 9v-7l4.5 3.5-4.5 3.5z"/></g><path fill="#A0A0A0" d="M134 181h-1a2 2 0 0 0-2 2v3a1 1 0 0 0 1 1h3a1 1 0 0 0 1-1v-3a2 2 0 0 0-2-2zm-.5 5a.5.5 0 1 1 0-1 .5.5 0 0 1 0 1zm1.5-2h-3v-.5a1.5 1.5 0 0 1 3 0v.5z"/></symbol><symbol id="static-method" viewBox="136 170 17 17"><g clip-path="url(#SVGID_4_)"><path fill="#9600FF" d="M148 173h-7a2 2 0 0 0-2 2v7a2 2 0 0 0 2 2h7a2 2 0 0 0 2-2v-7a2 2 0 0 0-2-2zm-5 9v-7l4.5 3.5-4.5 3.5z"/></g></symbol><symbol id="static-method-protected" viewBox="153 170 17 17"><g clip-path="url(#SVGID_4_)"><path fill="#9600FF" d="M165 173h-7a2 2 0 0 0-2 2v7a2 2 0 0 0 2 2h7a2 2 0 0 0 2-2v-7a2 2 0 0 0-2-2zm-5 9v-7l4.5 3.5-4.5 3.5z"/></g><path fill="#9600FF" d="M168 181h-1a2 2 0 0 0-2 2v3a1 1 0 0 0 1 1h3a1 1 0 0 0 1-1v-3a2 2 0 0 0-2-2zm-.5 5a.5.5 0 1 1 0-1 .5.5 0 0 1 0 1zm1.5-2h-3v-.5a1.5 1.5 0 0 1 3 0v.5z"/></symbol><symbol id="static-method-enum" viewBox="170 170 17 17"><g clip-path="url(#SVGID_4_)"><path fill="#C90" d="M182 173h-7a2 2 0 0 0-2 2v7a2 2 0 0 0 2 2h7a2 2 0 0 0 2-2v-7a2 2 0 0 0-2-2zm-5 9v-7l4.5 3.5-4.5 3.5z"/></g></symbol><symbol id="static-method-enum-protected" viewBox="187 170 17 17"><g clip-path="url(#SVGID_4_)"><path fill="#C90" d="M199 173h-7a2 2 0 0 0-2 2v7a2 2 0 0 0 2 2h7a2 2 0 0 0 2-2v-7a2 2 0 0 0-2-2zm-5 9v-7l4.5 3.5-4.5 3.5z"/></g><path fill="#CD9B06" d="M202 181h-1a2 2 0 0 0-2 2v3a1 1 0 0 0 1 1h3a1 1 0 0 0 1-1v-3a2 2 0 0 0-2-2zm-.5 5a.5.5 0 1 1 0-1 .5.5 0 0 1 0 1zm1.5-2h-3v-.5a1.5 1.5 0 0 1 3 0v.5z"/></symbol><symbol id="static-method-interface" viewBox="204 170 17 17"><g clip-path="url(#SVGID_4_)"><path fill="#7DA01F" d="M216 173h-7a2 2 0 0 0-2 2v7a2 2 0 0 0 2 2h7a2 2 0 0 0 2-2v-7a2 2 0 0 0-2-2zm1 9a1 1 0 0 1-1 1h-7a1 1 0 0 1-1-1v-7a1 1 0 0 1 1-1h7a1 1 0 0 1 1 1v7zm-6 0 4.5-3.5-4.5-3.5v7z"/></g></symbol><symbol id="static-method-interface-inherited" viewBox="221 170 17 17"><g clip-path="url(#SVGID_4_)"><path fill="#7DA01F" d="M233 173h-7a2 2 0 0 0-2 2v7a2 2 0 0 0 2 2h7a2 2 0 0 0 2-2v-7a2 2 0 0 0-2-2zm1 9a1 1 0 0 1-1 1h-7a1 1 0 0 1-1-1v-7a1 1 0 0 1 1-1h7a1 1 0 0 1 1 1v7zm-6 0 4.5-3.5-4.5-3.5v7z"/></g><path fill="#7DA01F" d="M223 183v-9c0-.356.102-.687.265-.977A1.995 1.995 0 0 0 221.5 175v7c0 1.023.772 1.858 1.765 1.977A1.989 1.989 0 0 1 223 183z"/></symbol></g></g><g id="Static_property_1_"><g id="Base_65_"><defs><path id="SVGID_5_" d="M0 0v204h238V0H0zm103 169a2 2 0 0 1-2 2h-3a2 2 0 0 1-2-2v-4a2 2 0 0 1 2-2h3a2 2 0 0 1 2 2v4zm17 0a2 2 0 0 1-2 2h-3a2 2 0 0 1-2-2v-4a2 2 0 0 1 2-2h3a2 2 0 0 1 2 2v4zm17 0a2 2 0 0 1-2 2h-3a2 2 0 0 1-2-2v-4a2 2 0 0 1 2-2h3a2 2 0 0 1 2 2v4zm34 0a2 2 0 0 1-2 2h-3a2 2 0 0 1-2-2v-4a2 2 0 0 1 2-2h3a2 2 0 0 1 2 2v4zm34 0a2 2 0 0 1-2 2h-3a2 2 0 0 1-2-2v-4a2 2 0 0 1 2-2h3a2 2 0 0 1 2 2v4z"/></defs><clipPath id="SVGID_6_"><use xlink:href="#SVGID_5_" overflow="visible"/></clipPath><symbol id="static-property-class" viewBox="51 153 17 17"><g clip-path="url(#SVGID_6_)"><path fill="#3D85CC" d="M63 156h-7a2 2 0 0 0-2 2v7a2 2 0 0 0 2 2h7a2 2 0 0 0 2-2v-7a2 2 0 0 0-2-2z"/></g></symbol><symbol id="static-property-class-inherited" viewBox="68 153 17 17"><g clip-path="url(#SVGID_6_)"><path fill="#3D85CC" d="M80 156h-7a2 2 0 0 0-2 2v7a2 2 0 0 0 2 2h7a2 2 0 0 0 2-2v-7a2 2 0 0 0-2-2z"/></g><path fill="#3D85CC" d="M70 166v-9c0-.356.101-.687.265-.977A1.995 1.995 0 0 0 68.5 158v7c0 1.023.772 1.858 1.765 1.977A1.978 1.978 0 0 1 70 166z"/></symbol><symbol id="static-property-class-protected" viewBox="85 153 17 17"><g clip-path="url(#SVGID_6_)"><path fill="#3D85CC" d="M97 156h-7a2 2 0 0 0-2 2v7a2 2 0 0 0 2 2h7a2 2 0 0 0 2-2v-7a2 2 0 0 0-2-2z"/></g><path fill="#3D85CC" d="M100 164h-1a2 2 0 0 0-2 2v3a1 1 0 0 0 1 1h3a1 1 0 0 0 1-1v-3a2 2 0 0 0-2-2zm-.5 5a.5.5 0 1 1 0-1 .5.5 0 0 1 0 1zm1.5-2h-3v-.5a1.5 1.5 0 0 1 3 0v.5z"/></symbol><symbol id="static-property-class-protected-inherited" viewBox="102 153 17 17"><g id="Protected_Inherited_6_" clip-path="url(#SVGID_6_)"><path fill="#3D85CC" d="M114 156h-7a2 2 0 0 0-2 2v7a2 2 0 0 0 2 2h7a2 2 0 0 0 2-2v-7a2 2 0 0 0-2-2z"/></g><path fill="#3D85CC" d="M104 166v-9c0-.356.101-.687.265-.977A1.995 1.995 0 0 0 102.5 158v7c0 1.023.772 1.858 1.765 1.977A1.978 1.978 0 0 1 104 166zM117 164h-1a2 2 0 0 0-2 2v3a1 1 0 0 0 1 1h3a1 1 0 0 0 1-1v-3a2 2 0 0 0-2-2zm-.5 5a.5.5 0 1 1 0-1 .5.5 0 0 1 0 1zm1.5-2h-3v-.5a1.5 1.5 0 0 1 3 0v.5z"/></symbol><symbol id="static-property-private" viewBox="119 153 17 17"><g clip-path="url(#SVGID_6_)"><path fill="#A0A0A0" d="M131 156h-7a2 2 0 0 0-2 2v7a2 2 0 0 0 2 2h7a2 2 0 0 0 2-2v-7a2 2 0 0 0-2-2z"/></g><path fill="#A0A0A0" d="M134 164h-1a2 2 0 0 0-2 2v3a1 1 0 0 0 1 1h3a1 1 0 0 0 1-1v-3a2 2 0 0 0-2-2zm-.5 5a.5.5 0 1 1 0-1 .5.5 0 0 1 0 1zm1.5-2h-3v-.5a1.5 1.5 0 0 1 3 0v.5z"/></symbol><symbol id="static-property" viewBox="136 153 17 17"><g clip-path="url(#SVGID_6_)"><path fill="#9600FF" d="M148 156h-7a2 2 0 0 0-2 2v7a2 2 0 0 0 2 2h7a2 2 0 0 0 2-2v-7a2 2 0 0 0-2-2z"/></g></symbol><symbol id="static-property-protected" viewBox="153 153 17 17"><g clip-path="url(#SVGID_6_)"><path fill="#9600FF" d="M165 156h-7a2 2 0 0 0-2 2v7a2 2 0 0 0 2 2h7a2 2 0 0 0 2-2v-7a2 2 0 0 0-2-2z"/></g><path fill="#9600FF" d="M168 164h-1a2 2 0 0 0-2 2v3a1 1 0 0 0 1 1h3a1 1 0 0 0 1-1v-3a2 2 0 0 0-2-2zm-.5 5a.5.5 0 1 1 0-1 .5.5 0 0 1 0 1zm1.5-2h-3v-.5a1.5 1.5 0 0 1 3 0v.5z"/></symbol><symbol id="static-property-enum" viewBox="170 153 17 17"><g clip-path="url(#SVGID_6_)"><path fill="#C90" d="M182 156h-7a2 2 0 0 0-2 2v7a2 2 0 0 0 2 2h7a2 2 0 0 0 2-2v-7a2 2 0 0 0-2-2z"/></g></symbol><symbol id="static-property-enum-protected" viewBox="187 153 17 17"><g clip-path="url(#SVGID_6_)"><path fill="#C90" d="M199 156h-7a2 2 0 0 0-2 2v7a2 2 0 0 0 2 2h7a2 2 0 0 0 2-2v-7a2 2 0 0 0-2-2z"/></g><path fill="#C90" d="M202 164h-1a2 2 0 0 0-2 2v3a1 1 0 0 0 1 1h3a1 1 0 0 0 1-1v-3a2 2 0 0 0-2-2zm-.5 5a.5.5 0 1 1 0-1 .5.5 0 0 1 0 1zm1.5-2h-3v-.5a1.5 1.5 0 0 1 3 0v.5z"/></symbol><symbol id="static-property-interface" viewBox="204 153 17 17"><g id="Interface_2_" clip-path="url(#SVGID_6_)"><path fill="#7DA01F" d="M216 156h-7a2 2 0 0 0-2 2v7a2 2 0 0 0 2 2h7a2 2 0 0 0 2-2v-7a2 2 0 0 0-2-2zm1 9a1 1 0 0 1-1 1h-7a1 1 0 0 1-1-1v-7a1 1 0 0 1 1-1h7a1 1 0 0 1 1 1v7z"/></g></symbol><symbol id="static-property-interface-inherited" viewBox="221 153 17 17"><g clip-path="url(#SVGID_6_)"><path fill="#7DA01F" d="M233 156h-7a2 2 0 0 0-2 2v7a2 2 0 0 0 2 2h7a2 2 0 0 0 2-2v-7a2 2 0 0 0-2-2zm1 9a1 1 0 0 1-1 1h-7a1 1 0 0 1-1-1v-7a1 1 0 0 1 1-1h7a1 1 0 0 1 1 1v7z"/></g><path fill="#7DA01F" d="M223 166v-9c0-.356.102-.687.265-.977A1.995 1.995 0 0 0 221.5 158v7c0 1.023.772 1.858 1.765 1.977A1.989 1.989 0 0 1 223 166z"/></symbol></g></g><g id="Event_1_"><g id="Base_64_"><defs><path id="SVGID_7_" d="M0 0v204h238V0H0zm103 152a2 2 0 0 1-2 2h-3a2 2 0 0 1-2-2v-4a2 2 0 0 1 2-2h3a2 2 0 0 1 2 2v4zm17 0a2 2 0 0 1-2 2h-3a2 2 0 0 1-2-2v-4a2 2 0 0 1 2-2h3a2 2 0 0 1 2 2v4zm17 0a2 2 0 0 1-2 2h-3a2 2 0 0 1-2-2v-4a2 2 0 0 1 2-2h3a2 2 0 0 1 2 2v4zm34 0a2 2 0 0 1-2 2h-3a2 2 0 0 1-2-2v-4a2 2 0 0 1 2-2h3a2 2 0 0 1 2 2v4zm34 0a2 2 0 0 1-2 2h-3a2 2 0 0 1-2-2v-4a2 2 0 0 1 2-2h3a2 2 0 0 1 2 2v4z"/></defs><clipPath id="SVGID_8_"><use xlink:href="#SVGID_7_" overflow="visible"/></clipPath><symbol id="event-class" viewBox="51 136 17 17"><g clip-path="url(#SVGID_8_)"><path fill="#4DA6FF" d="m63.531 144.518-2.643-1.527 1.496-5.486-6.915 6.977 2.643 1.527-1.496 5.486z"/></g></symbol><symbol id="event-class-inherited" viewBox="68 136 17 17"><g clip-path="url(#SVGID_8_)"><path fill="#4DA6FF" d="m80.531 144.518-2.643-1.527 1.496-5.486-6.915 6.977 2.643 1.527-1.496 5.486z"/><path fill="#4DA6FF" d="m73.074 149.52.958-3.511-2.643-1.527 4.956-5.001.539-1.976-6.915 6.977 2.643 1.527-1.496 5.486z"/></g></symbol><symbol id="event-class-protected" viewBox="85 136 17 17"><g clip-path="url(#SVGID_8_)"><path fill="#4DA6FF" d="m97.531 144.518-2.643-1.527 1.496-5.486-6.915 6.977 2.643 1.527-1.496 5.486z"/></g><path fill="#4DA6FF" d="M100 147h-1a2 2 0 0 0-2 2v3a1 1 0 0 0 1 1h3a1 1 0 0 0 1-1v-3a2 2 0 0 0-2-2zm-.5 5a.5.5 0 1 1 0-1 .5.5 0 0 1 0 1zm1.5-2h-3v-.5a1.5 1.5 0 0 1 3 0v.5z"/></symbol><symbol id="event-class-protected-inherited" viewBox="102 136 17 17"><g clip-path="url(#SVGID_8_)"><path fill="#4DA6FF" d="m114.531 144.518-2.643-1.527 1.496-5.486-6.915 6.977 2.643 1.527-1.496 5.486z"/><path fill="#4DA6FF" d="m107.074 149.52.958-3.511-2.643-1.527 4.956-5.001.539-1.976-6.915 6.977 2.643 1.527-1.496 5.486z"/></g><path fill="#4DA6FF" d="M117 147h-1a2 2 0 0 0-2 2v3a1 1 0 0 0 1 1h3a1 1 0 0 0 1-1v-3a2 2 0 0 0-2-2zm-.5 5a.5.5 0 1 1 0-1 .5.5 0 0 1 0 1zm1.5-2h-3v-.5a1.5 1.5 0 0 1 3 0v.5z"/></symbol><symbol id="event-private" viewBox="119 136 17 17"><g clip-path="url(#SVGID_8_)"><path fill="#A0A0A0" d="m131.531 144.518-2.643-1.527 1.496-5.486-6.915 6.977 2.643 1.527-1.496 5.486z"/></g><path fill="#A0A0A0" d="M134 147h-1a2 2 0 0 0-2 2v3a1 1 0 0 0 1 1h3a1 1 0 0 0 1-1v-3a2 2 0 0 0-2-2zm-.5 5a.5.5 0 1 1 0-1 .5.5 0 0 1 0 1zm1.5-2h-3v-.5a1.5 1.5 0 0 1 3 0v.5z"/></symbol><symbol id="event" viewBox="136 136 17 17"><g clip-path="url(#SVGID_8_)"><path fill="#9600FF" d="m148.531 144.518-2.643-1.527 1.496-5.486-6.915 6.977 2.643 1.527-1.496 5.486z"/></g></symbol><symbol id="event-protected" viewBox="153 136 17 17"><g clip-path="url(#SVGID_8_)"><path fill="#9600FF" d="m165.531 144.518-2.643-1.527 1.496-5.486-6.915 6.977 2.643 1.527-1.496 5.486z"/></g><path fill="#9600FF" d="M168 147h-1a2 2 0 0 0-2 2v3a1 1 0 0 0 1 1h3a1 1 0 0 0 1-1v-3a2 2 0 0 0-2-2zm-.5 5a.5.5 0 1 1 0-1 .5.5 0 0 1 0 1zm1.5-2h-3v-.5a1.5 1.5 0 0 1 3 0v.5z"/></symbol><symbol id="event-enum" viewBox="170 136 17 17"><g clip-path="url(#SVGID_8_)"><path fill="#C90" d="m182.531 144.518-2.643-1.527 1.496-5.486-6.915 6.977 2.643 1.527-1.496 5.486z"/></g></symbol><symbol id="event-enum-protected" viewBox="187 136 17 17"><g clip-path="url(#SVGID_8_)"><path fill="#C90" d="m199.531 144.518-2.643-1.527 1.496-5.486-6.915 6.977 2.643 1.527-1.496 5.486z"/></g><path fill="#C90" d="M202 147h-1a2 2 0 0 0-2 2v3a1 1 0 0 0 1 1h3a1 1 0 0 0 1-1v-3a2 2 0 0 0-2-2zm-.5 5a.5.5 0 1 1 0-1 .5.5 0 0 1 0 1zm1.5-2h-3v-.5a1.5 1.5 0 0 1 3 0v.5z"/></symbol><symbol id="event-interface" viewBox="204 136 17 17"><g clip-path="url(#SVGID_8_)"><path fill="#7DA01F" d="m216.531 144.518-2.643-1.527 1.496-5.486-6.915 6.977 2.643 1.527-1.496 5.486z"/></g></symbol><symbol id="event-interface-inherited" viewBox="221 136 17 17"><g clip-path="url(#SVGID_8_)"><path fill="#7DA01F" d="m233.531 144.518-2.643-1.527 1.496-5.486-6.915 6.977 2.643 1.527-1.496 5.486z"/><path fill="#7DA01F" d="m226.074 149.52.958-3.511-2.643-1.527 4.956-5.001.539-1.976-6.915 6.977 2.643 1.527-1.496 5.486z"/></g></symbol></g></g><g id="Index_1_"><g id="Base_63_"><defs><path id="SVGID_9_" d="M0 0v204h238V0H0zm103 135a2 2 0 0 1-2 2h-3a2 2 0 0 1-2-2v-4a2 2 0 0 1 2-2h3a2 2 0 0 1 2 2v4zm17 0a2 2 0 0 1-2 2h-3a2 2 0 0 1-2-2v-4a2 2 0 0 1 2-2h3a2 2 0 0 1 2 2v4zm17 0a2 2 0 0 1-2 2h-3a2 2 0 0 1-2-2v-4a2 2 0 0 1 2-2h3a2 2 0 0 1 2 2v4zm34 0a2 2 0 0 1-2 2h-3a2 2 0 0 1-2-2v-4a2 2 0 0 1 2-2h3a2 2 0 0 1 2 2v4zm34 0a2 2 0 0 1-2 2h-3a2 2 0 0 1-2-2v-4a2 2 0 0 1 2-2h3a2 2 0 0 1 2 2v4z"/></defs><clipPath id="SVGID_10_"><use xlink:href="#SVGID_9_" overflow="visible"/></clipPath><symbol id="index-class" viewBox="51 119 17 17"><g clip-path="url(#SVGID_10_)"><path fill="#4DA6FF" d="M59.5 122a5.5 5.5 0 1 0 .001 11.001A5.5 5.5 0 0 0 59.5 122zm-1.5 4h-1v3h1v1h-1a1 1 0 0 1-1-1v-3a1 1 0 0 1 1-1h1v1zm5 3a1 1 0 0 1-1 1h-1v-1h1v-3h-1v-1h1a1 1 0 0 1 1 1v3z"/></g></symbol><symbol id="index-class-inherited" viewBox="68 119 17 17"><g clip-path="url(#SVGID_10_)"><path fill="#4DA6FF" d="M76.5 122a5.5 5.5 0 1 0 .001 11.001A5.5 5.5 0 0 0 76.5 122zm-1.5 4h-1v3h1v1h-1a1 1 0 0 1-1-1v-3a1 1 0 0 1 1-1h1v1zm5 3a1 1 0 0 1-1 1h-1v-1h1v-3h-1v-1h1a1 1 0 0 1 1 1v3z"/></g><path fill="#4DA6FF" d="M70 127.5a6.492 6.492 0 0 1 2.843-5.373 5.499 5.499 0 0 0 0 10.746A6.492 6.492 0 0 1 70 127.5z"/></symbol><symbol id="index-class-protected" viewBox="85 119 17 17"><g clip-path="url(#SVGID_10_)"><path fill="#4DA6FF" d="M93.5 122a5.5 5.5 0 1 0 .001 11.001A5.5 5.5 0 0 0 93.5 122zm-1.5 4h-1v3h1v1h-1a1 1 0 0 1-1-1v-3a1 1 0 0 1 1-1h1v1zm5 3a1 1 0 0 1-1 1h-1v-1h1v-3h-1v-1h1a1 1 0 0 1 1 1v3z"/></g><path fill="#4DA6FF" d="M100 130h-1a2 2 0 0 0-2 2v3a1 1 0 0 0 1 1h3a1 1 0 0 0 1-1v-3a2 2 0 0 0-2-2zm-.5 5a.5.5 0 1 1 0-1 .5.5 0 0 1 0 1zm1.5-2h-3v-.5a1.5 1.5 0 0 1 3 0v.5z"/></symbol><symbol id="index-class-protected-inherited" viewBox="102 119 17 17"><g clip-path="url(#SVGID_10_)"><path fill="#4DA6FF" d="M110.5 122a5.5 5.5 0 1 0 .001 11.001A5.5 5.5 0 0 0 110.5 122zm-1.5 4h-1v3h1v1h-1a1 1 0 0 1-1-1v-3a1 1 0 0 1 1-1h1v1zm5 3a1 1 0 0 1-1 1h-1v-1h1v-3h-1v-1h1a1 1 0 0 1 1 1v3z"/></g><path fill="#4DA6FF" d="M104 127.5a6.492 6.492 0 0 1 2.843-5.373 5.499 5.499 0 0 0 0 10.746A6.492 6.492 0 0 1 104 127.5zM117 130h-1a2 2 0 0 0-2 2v3a1 1 0 0 0 1 1h3a1 1 0 0 0 1-1v-3a2 2 0 0 0-2-2zm-.5 5a.5.5 0 1 1 0-1 .5.5 0 0 1 0 1zm1.5-2h-3v-.5a1.5 1.5 0 0 1 3 0v.5z"/></symbol><symbol id="index-private" viewBox="119 119 17 17"><g clip-path="url(#SVGID_10_)"><path fill="#A0A0A0" d="M127.5 122a5.5 5.5 0 1 0 .001 11.001A5.5 5.5 0 0 0 127.5 122zm-1.5 4h-1v3h1v1h-1a1 1 0 0 1-1-1v-3a1 1 0 0 1 1-1h1v1zm5 3a1 1 0 0 1-1 1h-1v-1h1v-3h-1v-1h1a1 1 0 0 1 1 1v3z"/></g><path fill="#A0A0A0" d="M134 130h-1a2 2 0 0 0-2 2v3a1 1 0 0 0 1 1h3a1 1 0 0 0 1-1v-3a2 2 0 0 0-2-2zm-.5 5a.5.5 0 1 1 0-1 .5.5 0 0 1 0 1zm1.5-2h-3v-.5a1.5 1.5 0 0 1 3 0v.5z"/></symbol><symbol id="index" viewBox="136 119 17 17"><g clip-path="url(#SVGID_10_)"><path fill="#9600FF" d="M144.5 122a5.5 5.5 0 1 0 .001 11.001A5.5 5.5 0 0 0 144.5 122zm-1.5 4h-1v3h1v1h-1a1 1 0 0 1-1-1v-3a1 1 0 0 1 1-1h1v1zm5 3a1 1 0 0 1-1 1h-1v-1h1v-3h-1v-1h1a1 1 0 0 1 1 1v3z"/></g></symbol><symbol id="index-protected" viewBox="153 119 17 17"><g clip-path="url(#SVGID_10_)"><path fill="#9600FF" d="M161.5 122a5.5 5.5 0 1 0 .001 11.001A5.5 5.5 0 0 0 161.5 122zm-1.5 4h-1v3h1v1h-1a1 1 0 0 1-1-1v-3a1 1 0 0 1 1-1h1v1zm5 3a1 1 0 0 1-1 1h-1v-1h1v-3h-1v-1h1a1 1 0 0 1 1 1v3z"/></g><path fill="#9600FF" d="M168 130h-1a2 2 0 0 0-2 2v3a1 1 0 0 0 1 1h3a1 1 0 0 0 1-1v-3a2 2 0 0 0-2-2zm-.5 5a.5.5 0 1 1 0-1 .5.5 0 0 1 0 1zm1.5-2h-3v-.5a1.5 1.5 0 0 1 3 0v.5z"/></symbol><symbol id="index-enum" viewBox="170 119 17 17"><g clip-path="url(#SVGID_10_)"><path fill="#C90" d="M178.5 122a5.5 5.5 0 1 0 .001 11.001A5.5 5.5 0 0 0 178.5 122zm-1.5 4h-1v3h1v1h-1a1 1 0 0 1-1-1v-3a1 1 0 0 1 1-1h1v1zm5 3a1 1 0 0 1-1 1h-1v-1h1v-3h-1v-1h1a1 1 0 0 1 1 1v3z"/></g></symbol><symbol id="index-enum-protected" viewBox="187 119 17 17"><g clip-path="url(#SVGID_10_)"><path fill="#C90" d="M195.5 122a5.5 5.5 0 1 0 0 11 5.5 5.5 0 0 0 0-11zm-1.5 4h-1v3h1v1h-1a1 1 0 0 1-1-1v-3a1 1 0 0 1 1-1h1v1zm5 3a1 1 0 0 1-1 1h-1v-1h1v-3h-1v-1h1a1 1 0 0 1 1 1v3z"/></g><path fill="#C90" d="M202 130h-1a2 2 0 0 0-2 2v3a1 1 0 0 0 1 1h3a1 1 0 0 0 1-1v-3a2 2 0 0 0-2-2zm-.5 5a.5.5 0 1 1 0-1 .5.5 0 0 1 0 1zm1.5-2h-3v-.5a1.5 1.5 0 0 1 3 0v.5z"/></symbol><symbol id="index-interface" viewBox="204 119 17 17"><g clip-path="url(#SVGID_10_)"><path fill="#7DA01F" d="M212.5 121a6.5 6.5 0 1 0 0 13 6.5 6.5 0 0 0 0-13zm0 12a5.5 5.5 0 1 1 .001-11.001A5.5 5.5 0 0 1 212.5 133zm-3.5-7v3a1 1 0 0 0 1 1h1v-1h-1v-3h1v-1h-1a1 1 0 0 0-1 1zm6-1h-1v1h1v3h-1v1h1a1 1 0 0 0 1-1v-3a1 1 0 0 0-1-1z"/></g></symbol><symbol id="index-interface-inherited" viewBox="221 119 17 17"><g clip-path="url(#SVGID_10_)"><path fill="#7DA01F" d="M229.5 121a6.5 6.5 0 1 0 0 13 6.5 6.5 0 0 0 0-13zm0 12a5.5 5.5 0 1 1 .001-11.001A5.5 5.5 0 0 1 229.5 133zm-3.5-7v3a1 1 0 0 0 1 1h1v-1h-1v-3h1v-1h-1a1 1 0 0 0-1 1zm6-1h-1v1h1v3h-1v1h1a1 1 0 0 0 1-1v-3a1 1 0 0 0-1-1z"/></g><path fill="#7DA01F" d="M222 127.5a7.479 7.479 0 0 1 3.026-6.01A6.5 6.5 0 0 0 221 127.5a6.5 6.5 0 0 0 4.026 6.01A7.479 7.479 0 0 1 222 127.5z"/></symbol></g></g><g id="Constructor_1_"><g id="Base_62_"><defs><path id="SVGID_11_" d="M0 0v204h238V0H0zm103 118a2 2 0 0 1-2 2h-3a2 2 0 0 1-2-2v-4a2 2 0 0 1 2-2h3a2 2 0 0 1 2 2v4zm17 0a2 2 0 0 1-2 2h-3a2 2 0 0 1-2-2v-4a2 2 0 0 1 2-2h3a2 2 0 0 1 2 2v4zm17 0a2 2 0 0 1-2 2h-3a2 2 0 0 1-2-2v-4a2 2 0 0 1 2-2h3a2 2 0 0 1 2 2v4zm34 0a2 2 0 0 1-2 2h-3a2 2 0 0 1-2-2v-4a2 2 0 0 1 2-2h3a2 2 0 0 1 2 2v4zm34 0a2 2 0 0 1-2 2h-3a2 2 0 0 1-2-2v-4a2 2 0 0 1 2-2h3a2 2 0 0 1 2 2v4z"/></defs><clipPath id="SVGID_12_"><use xlink:href="#SVGID_11_" overflow="visible"/></clipPath><symbol id="constructor-class" viewBox="51 102 17 17"><g clip-path="url(#SVGID_12_)"><path fill="#4DA6FF" d="M59.5 105a5.5 5.5 0 1 0 .001 11.001A5.5 5.5 0 0 0 59.5 105zm.93 6.43c-.113 1.479-.484 2.57-.93 2.57s-.816-1.092-.93-2.57c-1.479-.113-2.57-.484-2.57-.93s1.092-.816 2.57-.93c.113-1.479.484-2.57.93-2.57s.816 1.092.93 2.57c1.479.113 2.57.484 2.57.93s-1.092.816-2.57.93z"/></g></symbol><symbol id="constructor-class-inherited" viewBox="68 102 17 17"><g clip-path="url(#SVGID_12_)"><path fill="#4DA6FF" d="M76.5 105a5.5 5.5 0 1 0 .001 11.001A5.5 5.5 0 0 0 76.5 105zm.93 6.43c-.113 1.479-.484 2.57-.93 2.57s-.816-1.092-.93-2.57c-1.479-.113-2.57-.484-2.57-.93s1.092-.816 2.57-.93c.113-1.479.484-2.57.93-2.57s.816 1.092.93 2.57c1.479.113 2.57.484 2.57.93s-1.092.816-2.57.93z"/></g><path fill="#4DA6FF" d="M70 110.5a6.492 6.492 0 0 1 2.843-5.373 5.499 5.499 0 0 0 0 10.746A6.492 6.492 0 0 1 70 110.5z"/></symbol><symbol id="constructor-class-protected" viewBox="85 102 17 17"><g clip-path="url(#SVGID_12_)"><path fill="#4DA6FF" d="M93.5 105a5.5 5.5 0 1 0 .001 11.001A5.5 5.5 0 0 0 93.5 105zm.93 6.43c-.113 1.479-.484 2.57-.93 2.57s-.816-1.092-.93-2.57c-1.479-.113-2.57-.484-2.57-.93s1.092-.816 2.57-.93c.113-1.479.484-2.57.93-2.57s.816 1.092.93 2.57c1.479.113 2.57.484 2.57.93s-1.092.816-2.57.93z"/></g><path fill="#4DA6FF" d="M100 113h-1a2 2 0 0 0-2 2v3a1 1 0 0 0 1 1h3a1 1 0 0 0 1-1v-3a2 2 0 0 0-2-2zm-.5 5a.5.5 0 1 1 0-1 .5.5 0 0 1 0 1zm1.5-2h-3v-.5a1.5 1.5 0 0 1 3 0v.5z"/></symbol><symbol id="constructor-class-protected-inherited" viewBox="102 102 17 17"><g clip-path="url(#SVGID_12_)"><path fill="#4DA6FF" d="M110.5 105a5.5 5.5 0 1 0 .001 11.001A5.5 5.5 0 0 0 110.5 105zm.93 6.43c-.113 1.479-.484 2.57-.93 2.57s-.816-1.092-.93-2.57c-1.479-.113-2.57-.484-2.57-.93s1.092-.816 2.57-.93c.113-1.479.484-2.57.93-2.57s.816 1.092.93 2.57c1.479.113 2.57.484 2.57.93s-1.092.816-2.57.93z"/></g><path fill="#4DA6FF" d="M104 110.5a6.492 6.492 0 0 1 2.843-5.373 5.499 5.499 0 0 0 0 10.746A6.492 6.492 0 0 1 104 110.5zM117 113h-1a2 2 0 0 0-2 2v3a1 1 0 0 0 1 1h3a1 1 0 0 0 1-1v-3a2 2 0 0 0-2-2zm-.5 5a.5.5 0 1 1 0-1 .5.5 0 0 1 0 1zm1.5-2h-3v-.5a1.5 1.5 0 0 1 3 0v.5z"/></symbol><symbol id="constructor-private" viewBox="119 102 17 17"><g clip-path="url(#SVGID_12_)"><path fill="#A0A0A0" d="M127.5 105a5.5 5.5 0 1 0 .001 11.001A5.5 5.5 0 0 0 127.5 105zm.93 6.43c-.113 1.479-.484 2.57-.93 2.57s-.816-1.092-.93-2.57c-1.479-.113-2.57-.484-2.57-.93s1.092-.816 2.57-.93c.113-1.479.484-2.57.93-2.57s.816 1.092.93 2.57c1.479.113 2.57.484 2.57.93s-1.092.816-2.57.93z"/></g><path fill="#A0A0A0" d="M134 113h-1a2 2 0 0 0-2 2v3a1 1 0 0 0 1 1h3a1 1 0 0 0 1-1v-3a2 2 0 0 0-2-2zm-.5 5a.5.5 0 1 1 0-1 .5.5 0 0 1 0 1zm1.5-2h-3v-.5a1.5 1.5 0 0 1 3 0v.5z"/></symbol><symbol id="constructor" viewBox="136 102 17 17"><g clip-path="url(#SVGID_12_)"><path fill="#9600FF" d="M144.5 105a5.5 5.5 0 1 0 .001 11.001A5.5 5.5 0 0 0 144.5 105zm.93 6.43c-.113 1.479-.484 2.57-.93 2.57s-.816-1.092-.93-2.57c-1.479-.113-2.57-.484-2.57-.93s1.092-.816 2.57-.93c.113-1.479.484-2.57.93-2.57s.816 1.092.93 2.57c1.479.113 2.57.484 2.57.93s-1.092.816-2.57.93z"/></g></symbol><symbol id="constructor-protected" viewBox="153 102 17 17"><g clip-path="url(#SVGID_12_)"><path fill="#9600FF" d="M161.5 105a5.5 5.5 0 1 0 .001 11.001A5.5 5.5 0 0 0 161.5 105zm.93 6.43c-.113 1.479-.484 2.57-.93 2.57s-.816-1.092-.93-2.57c-1.479-.113-2.57-.484-2.57-.93s1.092-.816 2.57-.93c.113-1.479.484-2.57.93-2.57s.816 1.092.93 2.57c1.479.113 2.57.484 2.57.93s-1.092.816-2.57.93z"/></g><path fill="#9600FF" d="M168 113h-1a2 2 0 0 0-2 2v3a1 1 0 0 0 1 1h3a1 1 0 0 0 1-1v-3a2 2 0 0 0-2-2zm-.5 5a.5.5 0 1 1 0-1 .5.5 0 0 1 0 1zm1.5-2h-3v-.5a1.5 1.5 0 0 1 3 0v.5z"/></symbol><symbol id="constructor-enum" viewBox="170 102 17 17"><g clip-path="url(#SVGID_12_)"><path fill="#C90" d="M178.5 105a5.5 5.5 0 1 0 .001 11.001A5.5 5.5 0 0 0 178.5 105zm.93 6.43c-.113 1.479-.484 2.57-.93 2.57s-.816-1.092-.93-2.57c-1.479-.113-2.57-.484-2.57-.93s1.092-.816 2.57-.93c.113-1.479.484-2.57.93-2.57s.816 1.092.93 2.57c1.479.113 2.57.484 2.57.93s-1.092.816-2.57.93z"/></g></symbol><symbol id="constructor-enum-protected" viewBox="187 102 17 17"><g clip-path="url(#SVGID_12_)"><path fill="#C90" d="M195.5 105a5.5 5.5 0 1 0 0 11 5.5 5.5 0 0 0 0-11zm.93 6.43c-.113 1.479-.484 2.57-.93 2.57s-.816-1.092-.93-2.57c-1.479-.113-2.57-.484-2.57-.93s1.092-.816 2.57-.93c.113-1.479.484-2.57.93-2.57s.816 1.092.93 2.57c1.479.113 2.57.484 2.57.93s-1.092.816-2.57.93z"/></g><path fill="#C90" d="M202 113h-1a2 2 0 0 0-2 2v3a1 1 0 0 0 1 1h3a1 1 0 0 0 1-1v-3a2 2 0 0 0-2-2zm-.5 5a.5.5 0 1 1 0-1 .5.5 0 0 1 0 1zm1.5-2h-3v-.5a1.5 1.5 0 0 1 3 0v.5z"/></symbol><symbol id="constructor-interface" viewBox="204 102 17 17"><g clip-path="url(#SVGID_12_)"><path fill="#7DA01F" d="M213.43 109.57c-.113-1.479-.484-2.57-.93-2.57s-.816 1.092-.93 2.57c-1.479.113-2.57.484-2.57.93s1.092.816 2.57.93c.113 1.479.484 2.57.93 2.57s.816-1.092.93-2.57c1.479-.113 2.57-.484 2.57-.93s-1.092-.816-2.57-.93zm-.93-5.57a6.5 6.5 0 1 0 0 13 6.5 6.5 0 0 0 0-13zm0 12a5.5 5.5 0 1 1 .001-11.001A5.5 5.5 0 0 1 212.5 116z"/></g></symbol><symbol id="constructor-interface-inherited" viewBox="221 102 17 17"><g clip-path="url(#SVGID_12_)"><path fill="#7DA01F" d="M229.5 104a6.5 6.5 0 1 0 0 13 6.5 6.5 0 0 0 0-13zm0 12a5.5 5.5 0 1 1 .001-11.001A5.5 5.5 0 0 1 229.5 116zm.93-6.43c-.113-1.479-.484-2.57-.93-2.57s-.816 1.092-.93 2.57c-1.479.113-2.57.484-2.57.93s1.092.816 2.57.93c.113 1.479.484 2.57.93 2.57s.816-1.092.93-2.57c1.479-.113 2.57-.484 2.57-.93s-1.092-.816-2.57-.93z"/></g><path fill="#7DA01F" d="M222 110.5a7.479 7.479 0 0 1 3.026-6.01A6.5 6.5 0 0 0 221 110.5a6.5 6.5 0 0 0 4.026 6.01A7.479 7.479 0 0 1 222 110.5z"/></symbol></g></g><g id="Method_TypeParameter_1_"><g id="Base_x2F_Shadow_1_"><defs><path id="SVGID_13_" d="M0 0v204h238V0H0zm42 102h-8v-3.5l2.5-2.5h2l3.5 3.5v2.5zm17 0h-8v-3.5l2.5-2.5h2l3.5 3.5v2.5zm17 0h-8v-3.5l2.5-2.5h2l3.5 3.5v2.5zm17 0h-8v-3.5l2.5-2.5h2l3.5 3.5v2.5zm17 0h-7.277a1.99 1.99 0 0 1-1.723 1h-3a2 2 0 0 1-2-2v-4a2 2 0 0 1 2-2h3a2 2 0 0 1 2 2v.5l1.5-1.5h2l3.5 3.5v2.5zm17 0h-7.277a1.99 1.99 0 0 1-1.723 1h-3a2 2 0 0 1-2-2v-4a2 2 0 0 1 2-2h3a2 2 0 0 1 2 2v.5l1.5-1.5h2l3.5 3.5v2.5zm17 0h-7.277a1.99 1.99 0 0 1-1.723 1h-3a2 2 0 0 1-2-2v-4a2 2 0 0 1 2-2h3a2 2 0 0 1 2 2v.5l1.5-1.5h2l3.5 3.5v2.5zm17 0h-8v-3.5l2.5-2.5h2l3.5 3.5v2.5zm17 0h-7.277a1.99 1.99 0 0 1-1.723 1h-3a2 2 0 0 1-2-2v-4a2 2 0 0 1 2-2h3a2 2 0 0 1 2 2v.5l1.5-1.5h2l3.5 3.5v2.5zm17 0h-8v-3.5l2.5-2.5h2l3.5 3.5v2.5zm17 0h-7.277a1.99 1.99 0 0 1-1.723 1h-3a2 2 0 0 1-2-2v-4a2 2 0 0 1 2-2h3a2 2 0 0 1 2 2v.5l1.5-1.5h2l3.5 3.5v2.5zm17 0h-8v-3.5l2.5-2.5h2l3.5 3.5v2.5z"/></defs><clipPath id="SVGID_14_"><use xlink:href="#SVGID_13_" overflow="visible"/></clipPath><g id="Base_61_" clip-path="url(#SVGID_14_)"><symbol id="method-type-param-class" viewBox="51 85 17 17"><g id="Public_6_" clip-path="url(#SVGID_14_)"><path fill="#4DA6FF" d="M59.5 88a5.5 5.5 0 1 0 .001 11.001A5.5 5.5 0 0 0 59.5 88zM58 97v-7l4.5 3.5L58 97z"/></g><path fill="#4DA6FF" d="M53.5 97.379 51.379 99.5l2.121 2.121.707-.707-1.414-1.414 1.414-1.414-.707-.707zm2 0-.707.707 1.414 1.414-1.414 1.414.707.707 2.121-2.121-2.121-2.121z"/></symbol><symbol id="method-type-param-class-inherited" viewBox="68 85 17 17"><g id="Public_Inherited_12_" clip-path="url(#SVGID_14_)"><path fill="#4DA6FF" d="M76.5 88a5.5 5.5 0 1 0 .001 11.001A5.5 5.5 0 0 0 76.5 88zM75 97v-7l4.5 3.5L75 97z"/></g><path fill="#4DA6FF" d="M70.5 97.379 68.379 99.5l2.121 2.121.707-.707-1.414-1.414 1.414-1.414-.707-.707zm2 0-.707.707 1.414 1.414-1.414 1.414.707.707 2.121-2.121-2.121-2.121z"/><path fill="#4DA6FF" d="M70 93.5a6.492 6.492 0 0 1 2.843-5.373A5.5 5.5 0 0 0 68.51 93.5a5.5 5.5 0 0 0 4.333 5.373A6.492 6.492 0 0 1 70 93.5z"/></symbol><symbol id="method-type-param-class-protected" viewBox="85 85 17 17"><g id="Protected_12_" clip-path="url(#SVGID_14_)"><path fill="#4DA6FF" d="M93.5 88a5.5 5.5 0 1 0 .001 11.001A5.5 5.5 0 0 0 93.5 88zM92 97v-7l4.5 3.5L92 97z"/></g><path fill="#4DA6FF" d="M87.5 97.379 85.379 99.5l2.121 2.121.707-.707-1.414-1.414 1.414-1.414-.707-.707zm2 0-.707.707 1.414 1.414-1.414 1.414.707.707 2.121-2.121-2.121-2.121zM100 96h-1a2 2 0 0 0-2 2v3a1 1 0 0 0 1 1h3a1 1 0 0 0 1-1v-3a2 2 0 0 0-2-2zm-.5 5a.5.5 0 1 1 0-1 .5.5 0 0 1 0 1zm1.5-2h-3v-.5a1.5 1.5 0 0 1 3 0v.5z"/></symbol><symbol id="method-type-param-class-protected-inherited" viewBox="102 85 17 17"><g id="Protected_Inherited_18_" clip-path="url(#SVGID_14_)"><path fill="#4DA6FF" d="M110.5 88a5.5 5.5 0 1 0 .001 11.001A5.5 5.5 0 0 0 110.5 88zm-1.5 9v-7l4.5 3.5L109 97z"/></g><path fill="#4DA6FF" d="m104.5 97.379-2.121 2.121 2.121 2.121.707-.707-1.414-1.414 1.414-1.414-.707-.707zm2 0-.707.707 1.414 1.414-1.414 1.414.707.707 2.121-2.121-2.121-2.121z"/><path fill="#4DA6FF" d="M104 93.5a6.492 6.492 0 0 1 2.843-5.373 5.5 5.5 0 0 0-4.333 5.373 5.5 5.5 0 0 0 4.333 5.373A6.492 6.492 0 0 1 104 93.5zM117 96h-1a2 2 0 0 0-2 2v3a1 1 0 0 0 1 1h3a1 1 0 0 0 1-1v-3a2 2 0 0 0-2-2zm-.5 5a.5.5 0 1 1 0-1 .5.5 0 0 1 0 1zm1.5-2h-3v-.5a1.5 1.5 0 0 1 3 0v.5z"/></symbol><symbol id="method-type-param-private" viewBox="119 85 17 17"><g id="Private_12_" clip-path="url(#SVGID_14_)"><path fill="#A0A0A0" d="M127.5 88a5.5 5.5 0 1 0 .001 11.001A5.5 5.5 0 0 0 127.5 88zm-1.5 9v-7l4.5 3.5L126 97z"/></g><path fill="#A0A0A0" d="m121.5 97.379-2.121 2.121 2.121 2.121.707-.707-1.414-1.414 1.414-1.414-.707-.707zm2 0-.707.707 1.414 1.414-1.414 1.414.707.707 2.121-2.121-2.121-2.121zM134 96h-1a2 2 0 0 0-2 2v3a1 1 0 0 0 1 1h3a1 1 0 0 0 1-1v-3a2 2 0 0 0-2-2zm-.5 5a.5.5 0 1 1 0-1 .5.5 0 0 1 0 1zm1.5-2h-3v-.5a1.5 1.5 0 0 1 3 0v.5z"/></symbol><symbol id="method-type-param" viewBox="136 85 17 17"><g id="Global_6_" clip-path="url(#SVGID_14_)"><path fill="#9600FF" d="M144.5 88a5.5 5.5 0 1 0 .001 11.001A5.5 5.5 0 0 0 144.5 88zm-1.5 9v-7l4.5 3.5L143 97z"/></g><path fill="#9600FF" d="m140.5 97.379-.707.707 1.414 1.414-1.414 1.414.707.707 2.121-2.121-2.121-2.121zm-2 0-2.121 2.121 2.121 2.121.707-.707-1.414-1.414 1.414-1.414-.707-.707z"/></symbol><symbol id="method-type-param-protected" viewBox="153 85 17 17"><g id="Global_Protected_12_" clip-path="url(#SVGID_14_)"><path fill="#9600FF" d="M161.5 88a5.5 5.5 0 1 0 .001 11.001A5.5 5.5 0 0 0 161.5 88zm-1.5 9v-7l4.5 3.5L160 97z"/></g><path fill="#9600FF" d="m155.5 97.379-2.121 2.121 2.121 2.121.707-.707-1.414-1.414 1.414-1.414-.707-.707zm2 0-.707.707 1.414 1.414-1.414 1.414.707.707 2.121-2.121-2.121-2.121zM168 96h-1a2 2 0 0 0-2 2v3a1 1 0 0 0 1 1h3a1 1 0 0 0 1-1v-3a2 2 0 0 0-2-2zm-.5 5a.5.5 0 1 1 0-1 .5.5 0 0 1 0 1zm1.5-2h-3v-.5a1.5 1.5 0 0 1 3 0v.5z"/></symbol><symbol id="method-type-param-enum" viewBox="170 85 17 17"><g id="Enum_6_" clip-path="url(#SVGID_14_)"><path fill="#C90" d="M178.5 88a5.5 5.5 0 1 0 .001 11.001A5.5 5.5 0 0 0 178.5 88zm-1.5 9v-7l4.5 3.5L177 97z"/></g><path fill="#C90" d="m172.5 97.379-2.121 2.121 2.121 2.121.707-.707-1.414-1.414 1.414-1.414-.707-.707zm2 0-.707.707 1.414 1.414-1.414 1.414.707.707 2.121-2.121-2.121-2.121z"/></symbol><symbol id="method-type-param-enum-protected" viewBox="187 85 17 17"><g id="Enum_Protected_12_" clip-path="url(#SVGID_14_)"><path fill="#C90" d="M195.5 88a5.5 5.5 0 1 0 0 11 5.5 5.5 0 0 0 0-11zm-1.5 9v-7l4.5 3.5L194 97z"/></g><path fill="#C90" d="m191.5 97.379-.707.707 1.414 1.414-1.414 1.414.707.707 2.121-2.121-2.121-2.121zm-2 0-2.121 2.121 2.121 2.121.707-.707-1.414-1.414 1.414-1.414-.707-.707zM202 96h-1a2 2 0 0 0-2 2v3a1 1 0 0 0 1 1h3a1 1 0 0 0 1-1v-3a2 2 0 0 0-2-2zm-.5 5a.5.5 0 1 1 0-1 .5.5 0 0 1 0 1zm1.5-2h-3v-.5a1.5 1.5 0 0 1 3 0v.5z"/></symbol><symbol id="method-type-param-interface" viewBox="204 85 17 17"><g id="Interface_6_" clip-path="url(#SVGID_14_)"><path fill="#7DA01F" d="M212.5 87a6.5 6.5 0 1 0 0 13 6.5 6.5 0 0 0 0-13zm0 12a5.5 5.5 0 1 1 .001-11.001A5.5 5.5 0 0 1 212.5 99zm-1.5-2 4.5-3.5L211 90v7z"/></g><path fill="#7DA01F" d="m208.5 97.379-.707.707 1.414 1.414-1.414 1.414.707.707 2.121-2.121-2.121-2.121zm-2 0-2.121 2.121 2.121 2.121.707-.707-1.414-1.414 1.414-1.414-.707-.707z"/></symbol><symbol id="method-type-param-interface-inherited" viewBox="221 85 17 17"><g id="Interface_Inherited_12_" clip-path="url(#SVGID_14_)"><path fill="#7DA01F" d="M229.5 87a6.5 6.5 0 1 0 0 13 6.5 6.5 0 0 0 0-13zm0 12a5.5 5.5 0 1 1 .001-11.001A5.5 5.5 0 0 1 229.5 99zm-1.5-2 4.5-3.5L228 90v7z"/></g><path fill="#7DA01F" d="M222 93.5a7.48 7.48 0 0 1 3.026-6.01 6.5 6.5 0 0 0 0 12.02A7.48 7.48 0 0 1 222 93.5z"/><path fill="#7DA01F" d="m223.5 97.379-2.121 2.121.04.04 2.081 2.081.707-.707-1.414-1.414 1.414-1.414-.707-.707zm4.081 2.081-2.081-2.081-.707.707 1.414 1.414-1.414 1.414.707.707 2.121-2.121-.04-.04z"/></symbol></g></g></g><g id="Method_1_"><g id="Base_60_"><defs><path id="SVGID_15_" d="M0 0v204h238V0H0zm103 84a2 2 0 0 1-2 2h-3a2 2 0 0 1-2-2v-4a2 2 0 0 1 2-2h3a2 2 0 0 1 2 2v4zm17 0a2 2 0 0 1-2 2h-3a2 2 0 0 1-2-2v-4a2 2 0 0 1 2-2h3a2 2 0 0 1 2 2v4zm17 0a2 2 0 0 1-2 2h-3a2 2 0 0 1-2-2v-4a2 2 0 0 1 2-2h3a2 2 0 0 1 2 2v4zm34 0a2 2 0 0 1-2 2h-3a2 2 0 0 1-2-2v-4a2 2 0 0 1 2-2h3a2 2 0 0 1 2 2v4zm34 0a2 2 0 0 1-2 2h-3a2 2 0 0 1-2-2v-4a2 2 0 0 1 2-2h3a2 2 0 0 1 2 2v4z"/></defs><clipPath id="SVGID_16_"><use xlink:href="#SVGID_15_" overflow="visible"/></clipPath><symbol id="method-class" viewBox="51 68 17 17"><g clip-path="url(#SVGID_16_)"><path fill="#4DA6FF" d="M59.5 71a5.5 5.5 0 1 0 .001 11.001A5.5 5.5 0 0 0 59.5 71zM58 80v-7l4.5 3.5L58 80z"/></g></symbol><symbol id="method-class-inherited" viewBox="68 68 17 17"><g id="Public_Inherited_14_" clip-path="url(#SVGID_16_)"><path fill="#4DA6FF" d="M76.5 71a5.5 5.5 0 1 0 .001 11.001A5.5 5.5 0 0 0 76.5 71zM75 80v-7l4.5 3.5L75 80z"/></g><path fill="#4DA6FF" d="M70 76.5a6.492 6.492 0 0 1 2.843-5.373A5.5 5.5 0 0 0 68.51 76.5a5.5 5.5 0 0 0 4.333 5.373A6.492 6.492 0 0 1 70 76.5z"/></symbol><symbol id="method-class-protected" viewBox="85 68 17 17"><g clip-path="url(#SVGID_16_)"><path fill="#4DA6FF" d="M93.5 71a5.5 5.5 0 1 0 .001 11.001A5.5 5.5 0 0 0 93.5 71zM92 80v-7l4.5 3.5L92 80z"/></g><path fill="#4DA6FF" d="M100 79h-1a2 2 0 0 0-2 2v3a1 1 0 0 0 1 1h3a1 1 0 0 0 1-1v-3a2 2 0 0 0-2-2zm-.5 5a.5.5 0 1 1 0-1 .5.5 0 0 1 0 1zm1.5-2h-3v-.5a1.5 1.5 0 0 1 3 0v.5z"/></symbol><symbol id="method-class-protected-inherited" viewBox="102 68 17 17"><g clip-path="url(#SVGID_16_)"><path fill="#4DA6FF" d="M110.5 71a5.5 5.5 0 1 0 .001 11.001A5.5 5.5 0 0 0 110.5 71zm-1.5 9v-7l4.5 3.5L109 80z"/></g><path fill="#4DA6FF" d="M104 76.5a6.492 6.492 0 0 1 2.843-5.373 5.5 5.5 0 0 0-4.333 5.373 5.5 5.5 0 0 0 4.333 5.373A6.492 6.492 0 0 1 104 76.5zM117 79h-1a2 2 0 0 0-2 2v3a1 1 0 0 0 1 1h3a1 1 0 0 0 1-1v-3a2 2 0 0 0-2-2zm-.5 5a.5.5 0 1 1 0-1 .5.5 0 0 1 0 1zm1.5-2h-3v-.5a1.5 1.5 0 0 1 3 0v.5z"/></symbol><symbol id="method-private" viewBox="119 68 17 17"><g clip-path="url(#SVGID_16_)"><path fill="#A0A0A0" d="M127.5 71a5.5 5.5 0 1 0 .001 11.001A5.5 5.5 0 0 0 127.5 71zm-1.5 9v-7l4.5 3.5L126 80z"/></g><path fill="#A0A0A0" d="M134 79h-1a2 2 0 0 0-2 2v3a1 1 0 0 0 1 1h3a1 1 0 0 0 1-1v-3a2 2 0 0 0-2-2zm-.5 5a.5.5 0 1 1 0-1 .5.5 0 0 1 0 1zm1.5-2h-3v-.5a1.5 1.5 0 0 1 3 0v.5z"/></symbol><symbol id="method" viewBox="136 68 17 17"><g clip-path="url(#SVGID_16_)"><path fill="#9600FF" d="M144.5 71a5.5 5.5 0 1 0 .001 11.001A5.5 5.5 0 0 0 144.5 71zm-1.5 9v-7l4.5 3.5L143 80z"/></g></symbol><symbol id="method-protected" viewBox="153 68 17 17"><g clip-path="url(#SVGID_16_)"><path fill="#9600FF" d="M161.5 71a5.5 5.5 0 1 0 .001 11.001A5.5 5.5 0 0 0 161.5 71zm-1.5 9v-7l4.5 3.5L160 80z"/></g><path fill="#9600FF" d="M168 79h-1a2 2 0 0 0-2 2v3a1 1 0 0 0 1 1h3a1 1 0 0 0 1-1v-3a2 2 0 0 0-2-2zm-.5 5a.5.5 0 1 1 0-1 .5.5 0 0 1 0 1zm1.5-2h-3v-.5a1.5 1.5 0 0 1 3 0v.5z"/></symbol><symbol id="method-enum" viewBox="170 68 17 17"><g clip-path="url(#SVGID_16_)"><path fill="#C90" d="M178.5 71a5.5 5.5 0 1 0 .001 11.001A5.5 5.5 0 0 0 178.5 71zm-1.5 9v-7l4.5 3.5L177 80z"/></g></symbol><symbol id="method-enum-protected" viewBox="187 68 17 17"><g clip-path="url(#SVGID_16_)"><path fill="#C90" d="M195.5 71a5.5 5.5 0 1 0 0 11 5.5 5.5 0 0 0 0-11zm-1.5 9v-7l4.5 3.5L194 80z"/></g><path fill="#C90" d="M202 79h-1a2 2 0 0 0-2 2v3a1 1 0 0 0 1 1h3a1 1 0 0 0 1-1v-3a2 2 0 0 0-2-2zm-.5 5a.5.5 0 1 1 0-1 .5.5 0 0 1 0 1zm1.5-2h-3v-.5a1.5 1.5 0 0 1 3 0v.5z"/></symbol><symbol id="method-interface" viewBox="204 68 17 17"><g clip-path="url(#SVGID_16_)"><path fill="#7DA01F" d="M212.5 70a6.5 6.5 0 1 0 0 13 6.5 6.5 0 0 0 0-13zm0 12a5.5 5.5 0 1 1 .001-11.001A5.5 5.5 0 0 1 212.5 82zm-1.5-2 4.5-3.5L211 73v7z"/></g></symbol><symbol id="method-interface-inherited" viewBox="221 68 17 17"><g clip-path="url(#SVGID_16_)"><path fill="#7DA01F" d="M229.5 70a6.5 6.5 0 1 0 0 13 6.5 6.5 0 0 0 0-13zm0 12a5.5 5.5 0 1 1 .001-11.001A5.5 5.5 0 0 1 229.5 82zm-1.5-2 4.5-3.5L228 73v7z"/></g><path fill="#7DA01F" d="M222 76.5a7.48 7.48 0 0 1 3.026-6.01 6.5 6.5 0 0 0 0 12.02A7.48 7.48 0 0 1 222 76.5z"/></symbol></g></g><g id="Getter_x2F_Setter_1_"><g id="Base_59_"><defs><path id="SVGID_17_" d="M0 0v204h238V0H0zm103 67a2 2 0 0 1-2 2h-3a2 2 0 0 1-2-2v-4a2 2 0 0 1 2-2h3a2 2 0 0 1 2 2v4zm17 0a2 2 0 0 1-2 2h-3a2 2 0 0 1-2-2v-4a2 2 0 0 1 2-2h3a2 2 0 0 1 2 2v4zm17 0a2 2 0 0 1-2 2h-3a2 2 0 0 1-2-2v-4a2 2 0 0 1 2-2h3a2 2 0 0 1 2 2v4zm34 0a2 2 0 0 1-2 2h-3a2 2 0 0 1-2-2v-4a2 2 0 0 1 2-2h3a2 2 0 0 1 2 2v4zm34 0a2 2 0 0 1-2 2h-3a2 2 0 0 1-2-2v-4a2 2 0 0 1 2-2h3a2 2 0 0 1 2 2v4z"/></defs><clipPath id="SVGID_18_"><use xlink:href="#SVGID_17_" overflow="visible"/></clipPath><symbol id="gettersetter-class" viewBox="51 51 17 17"><g clip-path="url(#SVGID_18_)"><path fill="#4DA6FF" d="M59.5 54a5.5 5.5 0 1 0 .001 11.001A5.5 5.5 0 0 0 59.5 54zM56 58h3v-2.5l3.5 3.5H56v-1zm7 3h-3v2.5L56.5 60H63v1z"/></g></symbol><symbol id="gettersetter-class-inherited" viewBox="68 51 17 17"><g clip-path="url(#SVGID_18_)"><path fill="#4DA6FF" d="M76.5 54a5.5 5.5 0 1 0 .001 11.001A5.5 5.5 0 0 0 76.5 54zM73 58h3v-2.5l3.5 3.5H73v-1zm7 3h-3v2.5L73.5 60H80v1z"/></g><path fill="#4DA6FF" d="M70 59.5a6.492 6.492 0 0 1 2.843-5.373A5.5 5.5 0 0 0 68.51 59.5a5.5 5.5 0 0 0 4.333 5.373A6.492 6.492 0 0 1 70 59.5z"/></symbol><symbol id="gettersetter-class-protected" viewBox="85 51 17 17"><g clip-path="url(#SVGID_18_)"><path fill="#4DA6FF" d="M93.5 54a5.5 5.5 0 1 0 .001 11.001A5.5 5.5 0 0 0 93.5 54zM90 58h3v-2.5l3.5 3.5H90v-1zm7 3h-3v2.5L90.5 60H97v1z"/></g><path fill="#4DA6FF" d="M100 62h-1a2 2 0 0 0-2 2v3a1 1 0 0 0 1 1h3a1 1 0 0 0 1-1v-3a2 2 0 0 0-2-2zm-.5 5a.5.5 0 1 1 0-1 .5.5 0 0 1 0 1zm1.5-2h-3v-.5a1.5 1.5 0 0 1 3 0v.5z"/></symbol><symbol id="gettersetter-class-protected-inherited" viewBox="102 51 17 17"><g clip-path="url(#SVGID_18_)"><path fill="#4DA6FF" d="M110.5 54a5.5 5.5 0 1 0 .001 11.001A5.5 5.5 0 0 0 110.5 54zm-3.5 4h3v-2.5l3.5 3.5H107v-1zm7 3h-3v2.5l-3.5-3.5h6.5v1z"/></g><path fill="#4DA6FF" d="M104 59.5a6.492 6.492 0 0 1 2.843-5.373 5.5 5.5 0 0 0-4.333 5.373 5.5 5.5 0 0 0 4.333 5.373A6.492 6.492 0 0 1 104 59.5zM117 62h-1a2 2 0 0 0-2 2v3a1 1 0 0 0 1 1h3a1 1 0 0 0 1-1v-3a2 2 0 0 0-2-2zm-.5 5a.5.5 0 1 1 0-1 .5.5 0 0 1 0 1zm1.5-2h-3v-.5a1.5 1.5 0 0 1 3 0v.5z"/></symbol><symbol id="gettersetter-private" viewBox="119 51 17 17"><g clip-path="url(#SVGID_18_)"><path fill="#A0A0A0" d="M127.5 54a5.5 5.5 0 1 0 .001 11.001A5.5 5.5 0 0 0 127.5 54zm-3.5 4h3v-2.5l3.5 3.5H124v-1zm7 3h-3v2.5l-3.5-3.5h6.5v1z"/></g><path fill="#A0A0A0" d="M134 62h-1a2 2 0 0 0-2 2v3a1 1 0 0 0 1 1h3a1 1 0 0 0 1-1v-3a2 2 0 0 0-2-2zm-.5 5a.5.5 0 1 1 0-1 .5.5 0 0 1 0 1zm1.5-2h-3v-.5a1.5 1.5 0 0 1 3 0v.5z"/></symbol><symbol id="gettersetter" viewBox="136 51 17 17"><g clip-path="url(#SVGID_18_)"><path fill="#9600FF" d="M144.5 54a5.5 5.5 0 1 0 .001 11.001A5.5 5.5 0 0 0 144.5 54zm-3.5 4h3v-2.5l3.5 3.5H141v-1zm7 3h-3v2.5l-3.5-3.5h6.5v1z"/></g></symbol><symbol id="gettersetter-protected" viewBox="153 51 17 17"><g clip-path="url(#SVGID_18_)"><path fill="#9600FF" d="M161.5 54a5.5 5.5 0 1 0 .001 11.001A5.5 5.5 0 0 0 161.5 54zm-3.5 4h3v-2.5l3.5 3.5H158v-1zm7 3h-3v2.5l-3.5-3.5h6.5v1z"/></g><path fill="#9600FF" d="M168 62h-1a2 2 0 0 0-2 2v3a1 1 0 0 0 1 1h3a1 1 0 0 0 1-1v-3a2 2 0 0 0-2-2zm-.5 5a.5.5 0 1 1 0-1 .5.5 0 0 1 0 1zm1.5-2h-3v-.5a1.5 1.5 0 0 1 3 0v.5z"/></symbol><symbol id="gettersetter-enum" viewBox="170 51 17 17"><g clip-path="url(#SVGID_18_)"><path fill="#C90" d="M178.5 54a5.5 5.5 0 1 0 .001 11.001A5.5 5.5 0 0 0 178.5 54zm-3.5 4h3v-2.5l3.5 3.5H175v-1zm7 3h-3v2.5l-3.5-3.5h6.5v1z"/></g></symbol><symbol id="gettersetter-enum-protected" viewBox="187 51 17 17"><g clip-path="url(#SVGID_18_)"><path fill="#C90" d="M195.5 54a5.5 5.5 0 1 0 0 11 5.5 5.5 0 0 0 0-11zm-3.5 4h3v-2.5l3.5 3.5H192v-1zm7 3h-3v2.5l-3.5-3.5h6.5v1z"/></g><path fill="#C90" d="M202 62h-1a2 2 0 0 0-2 2v3a1 1 0 0 0 1 1h3a1 1 0 0 0 1-1v-3a2 2 0 0 0-2-2zm-.5 5a.5.5 0 1 1 0-1 .5.5 0 0 1 0 1zm1.5-2h-3v-.5a1.5 1.5 0 0 1 3 0v.5z"/></symbol><symbol id="gettersetter-interface" viewBox="204 51 17 17"><g clip-path="url(#SVGID_18_)"><path fill="#7DA01F" d="M212 55.5V58h-3v1h6.5l-3.5-3.5zm.5-2.5a6.5 6.5 0 1 0 0 13 6.5 6.5 0 0 0 0-13zm0 12a5.5 5.5 0 1 1 .001-11.001A5.5 5.5 0 0 1 212.5 65zm.5-1.5V61h3v-1h-6.5l3.5 3.5z"/></g></symbol><symbol id="gettersetter-interface-inherited" viewBox="221 51 17 17"><g clip-path="url(#SVGID_18_)"><path fill="#7DA01F" d="M229 55.5V58h-3v1h6.5l-3.5-3.5zm.5-2.5a6.5 6.5 0 1 0 0 13 6.5 6.5 0 0 0 0-13zm0 12a5.5 5.5 0 1 1 .001-11.001A5.5 5.5 0 0 1 229.5 65zm.5-1.5V61h3v-1h-6.5l3.5 3.5z"/></g><path fill="#7DA01F" d="M222 59.5a7.48 7.48 0 0 1 3.026-6.01 6.5 6.5 0 0 0 0 12.02A7.48 7.48 0 0 1 222 59.5z"/></symbol></g></g><g id="Setter_1_"><g id="Base_58_"><defs><path id="SVGID_19_" d="M0 0v204h238V0H0zm103 50a2 2 0 0 1-2 2h-3a2 2 0 0 1-2-2v-4a2 2 0 0 1 2-2h3a2 2 0 0 1 2 2v4zm17 0a2 2 0 0 1-2 2h-3a2 2 0 0 1-2-2v-4a2 2 0 0 1 2-2h3a2 2 0 0 1 2 2v4zm17 0a2 2 0 0 1-2 2h-3a2 2 0 0 1-2-2v-4a2 2 0 0 1 2-2h3a2 2 0 0 1 2 2v4zm34 0a2 2 0 0 1-2 2h-3a2 2 0 0 1-2-2v-4a2 2 0 0 1 2-2h3a2 2 0 0 1 2 2v4zm34 0a2 2 0 0 1-2 2h-3a2 2 0 0 1-2-2v-4a2 2 0 0 1 2-2h3a2 2 0 0 1 2 2v4z"/></defs><clipPath id="SVGID_20_"><use xlink:href="#SVGID_19_" overflow="visible"/></clipPath><g id="Filling_3_" clip-path="url(#SVGID_20_)"><symbol id="setter-class" viewBox="51 36 17 17"><path id="Public_9_" fill="#4DA6FF" d="M59.5 38a4.5 4.5 0 0 0-4.5 4.5h9a4.5 4.5 0 0 0-4.5-4.5z" opacity=".349"/><g id="Public_10_" clip-path="url(#SVGID_20_)"><path fill="#4DA6FF" d="M59.5 37a5.5 5.5 0 1 0 .001 11.001A5.5 5.5 0 0 0 59.5 37zM56 41h3v-2.5l3.5 3.5H56v-1zm7 3h-3v2.5L56.5 43H63v1z"/></g></symbol><symbol id="setter-class-inherited" viewBox="68 36 17 17"><path id="Public_Inherited_18_" fill="#4DA6FF" d="M76.5 38a4.5 4.5 0 0 0-4.5 4.5h9a4.5 4.5 0 0 0-4.5-4.5z" opacity=".349"/><g id="Public_Inherited_19_" clip-path="url(#SVGID_20_)"><path fill="#4DA6FF" d="M76.5 37a5.5 5.5 0 1 0 .001 11.001A5.5 5.5 0 0 0 76.5 37zM73 41h3v-2.5l3.5 3.5H73v-1zm7 3h-3v2.5L73.5 43H80v1z"/></g><path fill="#4DA6FF" d="M70 42.5a6.492 6.492 0 0 1 2.843-5.373A5.5 5.5 0 0 0 68.51 42.5a5.5 5.5 0 0 0 4.333 5.373A6.492 6.492 0 0 1 70 42.5z"/></symbol><symbol id="setter-class-protected" viewBox="85 36 17 17"><path id="Protected_18_" fill="#4DA6FF" d="M93.5 38a4.5 4.5 0 0 0-4.5 4.5h9a4.5 4.5 0 0 0-4.5-4.5z" opacity=".349"/><g id="Protected_19_" clip-path="url(#SVGID_20_)"><path fill="#4DA6FF" d="M93.5 37a5.5 5.5 0 1 0 .001 11.001A5.5 5.5 0 0 0 93.5 37zM90 41h3v-2.5l3.5 3.5H90v-1zm7 3h-3v2.5L90.5 43H97v1z"/></g><path fill="#4DA6FF" d="M100 45h-1a2 2 0 0 0-2 2v3a1 1 0 0 0 1 1h3a1 1 0 0 0 1-1v-3a2 2 0 0 0-2-2zm-.5 5a.5.5 0 1 1 0-1 .5.5 0 0 1 0 1zm1.5-2h-3v-.5a1.5 1.5 0 0 1 3 0v.5z"/></symbol><symbol id="setter-class-protected-inherited" viewBox="102 36 17 17"><path id="Protected_Inherited_27_" fill="#4DA6FF" d="M110.5 38a4.5 4.5 0 0 0-4.5 4.5h9a4.5 4.5 0 0 0-4.5-4.5z" opacity=".349"/><g id="Protected_Inherited_28_" clip-path="url(#SVGID_20_)"><path fill="#4DA6FF" d="M110.5 37a5.5 5.5 0 1 0 .001 11.001A5.5 5.5 0 0 0 110.5 37zm-3.5 4h3v-2.5l3.5 3.5H107v-1zm7 3h-3v2.5l-3.5-3.5h6.5v1z"/></g><path fill="#4DA6FF" d="M104 42.5a6.492 6.492 0 0 1 2.843-5.373 5.5 5.5 0 0 0-4.333 5.373 5.5 5.5 0 0 0 4.333 5.373A6.492 6.492 0 0 1 104 42.5zM117 45h-1a2 2 0 0 0-2 2v3a1 1 0 0 0 1 1h3a1 1 0 0 0 1-1v-3a2 2 0 0 0-2-2zm-.5 5a.5.5 0 1 1 0-1 .5.5 0 0 1 0 1zm1.5-2h-3v-.5a1.5 1.5 0 0 1 3 0v.5z"/></symbol><symbol id="setter-private" viewBox="119 36 17 17"><path id="Private_18_" fill="#A0A0A0" d="M127.5 38a4.5 4.5 0 0 0-4.5 4.5h9a4.5 4.5 0 0 0-4.5-4.5z" opacity=".349"/><g id="Private_19_" clip-path="url(#SVGID_20_)"><path fill="#A0A0A0" d="M127.5 37a5.5 5.5 0 1 0 .001 11.001A5.5 5.5 0 0 0 127.5 37zm-3.5 4h3v-2.5l3.5 3.5H124v-1zm7 3h-3v2.5l-3.5-3.5h6.5v1z"/></g><path fill="#A0A0A0" d="M134 45h-1a2 2 0 0 0-2 2v3a1 1 0 0 0 1 1h3a1 1 0 0 0 1-1v-3a2 2 0 0 0-2-2zm-.5 5a.5.5 0 1 1 0-1 .5.5 0 0 1 0 1zm1.5-2h-3v-.5a1.5 1.5 0 0 1 3 0v.5z"/></symbol><symbol id="setter" viewBox="136 36 17 17"><path id="Global_9_" fill="#9600FF" d="M144.5 38a4.5 4.5 0 0 0-4.5 4.5h9a4.5 4.5 0 0 0-4.5-4.5z" opacity=".349"/><g id="Global_10_" clip-path="url(#SVGID_20_)"><path fill="#9600FF" d="M144.5 37a5.5 5.5 0 1 0 .001 11.001A5.5 5.5 0 0 0 144.5 37zm-3.5 4h3v-2.5l3.5 3.5H141v-1zm7 3h-3v2.5l-3.5-3.5h6.5v1z"/></g></symbol><symbol id="setter-protected" viewBox="153 36 17 17"><path id="Global_Protected_18_" fill="#9600FF" d="M161.5 38a4.5 4.5 0 0 0-4.5 4.5h9a4.5 4.5 0 0 0-4.5-4.5z" opacity=".349"/><g id="Global_Protected_19_" clip-path="url(#SVGID_20_)"><path fill="#9600FF" d="M161.5 37a5.5 5.5 0 1 0 .001 11.001A5.5 5.5 0 0 0 161.5 37zm-3.5 4h3v-2.5l3.5 3.5H158v-1zm7 3h-3v2.5l-3.5-3.5h6.5v1z"/></g><path fill="#9600FF" d="M168 45h-1a2 2 0 0 0-2 2v3a1 1 0 0 0 1 1h3a1 1 0 0 0 1-1v-3a2 2 0 0 0-2-2zm-.5 5a.5.5 0 1 1 0-1 .5.5 0 0 1 0 1zm1.5-2h-3v-.5a1.5 1.5 0 0 1 3 0v.5z"/></symbol><symbol id="setter-enum" viewBox="170 36 17 17"><path id="Enum_9_" fill="#C90" d="M178.5 38a4.5 4.5 0 0 0-4.5 4.5h9a4.5 4.5 0 0 0-4.5-4.5z" opacity=".349"/><g id="Enum_10_" clip-path="url(#SVGID_20_)"><path fill="#C90" d="M178.5 37a5.5 5.5 0 1 0 .001 11.001A5.5 5.5 0 0 0 178.5 37zm-3.5 4h3v-2.5l3.5 3.5H175v-1zm7 3h-3v2.5l-3.5-3.5h6.5v1z"/></g></symbol><symbol id="setter-enum-protected" viewBox="187 36 17 17"><path id="Enum_Protected_18_" fill="#C90" d="M195.5 38a4.5 4.5 0 0 0-4.5 4.5h9a4.5 4.5 0 0 0-4.5-4.5z" opacity=".349"/><g id="Enum_Protected_19_" clip-path="url(#SVGID_20_)"><path fill="#C90" d="M195.5 37a5.5 5.5 0 1 0 0 11 5.5 5.5 0 0 0 0-11zm-3.5 4h3v-2.5l3.5 3.5H192v-1zm7 3h-3v2.5l-3.5-3.5h6.5v1z"/></g><path fill="#C90" d="M202 45h-1a2 2 0 0 0-2 2v3a1 1 0 0 0 1 1h3a1 1 0 0 0 1-1v-3a2 2 0 0 0-2-2zm-.5 5a.5.5 0 1 1 0-1 .5.5 0 0 1 0 1zm1.5-2h-3v-.5a1.5 1.5 0 0 1 3 0v.5z"/></symbol><symbol id="setter-interface" viewBox="204 36 17 17"><path id="Interface_9_" fill="#7DA01F" d="M212 38.5V41h-3v1h6.5z" opacity=".349"/><g id="Interface_10_" clip-path="url(#SVGID_20_)"><path fill="#7DA01F" d="M212.5 36a6.5 6.5 0 1 0 0 13 6.5 6.5 0 0 0 0-13zm0 12a5.5 5.5 0 1 1 .001-11.001A5.5 5.5 0 0 1 212.5 48zm.5-1.5V44h3v-1h-6.5l3.5 3.5z"/></g></symbol><symbol id="setter-interface-inherited" viewBox="221 36 17 17"><path id="Interface_Inherited_18_" fill="#7DA01F" d="M229 38.5V41h-3v1h6.5z" opacity=".349"/><g id="Interface_Inherited_19_" clip-path="url(#SVGID_20_)"><path fill="#7DA01F" d="M229.5 36a6.5 6.5 0 1 0 0 13 6.5 6.5 0 0 0 0-13zm0 12a5.5 5.5 0 1 1 .001-11.001A5.5 5.5 0 0 1 229.5 48zm.5-1.5V44h3v-1h-6.5l3.5 3.5z"/></g><path fill="#7DA01F" d="M222 42.5a7.48 7.48 0 0 1 3.026-6.01 6.5 6.5 0 0 0 0 12.02A7.48 7.48 0 0 1 222 42.5z"/></symbol></g></g></g><g id="Getter_1_"><g id="Base_57_"><defs><path id="SVGID_21_" d="M0 0v204h238V0H0zm103 33a2 2 0 0 1-2 2h-3a2 2 0 0 1-2-2v-4a2 2 0 0 1 2-2h3a2 2 0 0 1 2 2v4zm17 0a2 2 0 0 1-2 2h-3a2 2 0 0 1-2-2v-4a2 2 0 0 1 2-2h3a2 2 0 0 1 2 2v4zm17 0a2 2 0 0 1-2 2h-3a2 2 0 0 1-2-2v-4a2 2 0 0 1 2-2h3a2 2 0 0 1 2 2v4zm34 0a2 2 0 0 1-2 2h-3a2 2 0 0 1-2-2v-4a2 2 0 0 1 2-2h3a2 2 0 0 1 2 2v4zm34 0a2 2 0 0 1-2 2h-3a2 2 0 0 1-2-2v-4a2 2 0 0 1 2-2h3a2 2 0 0 1 2 2v4z"/></defs><clipPath id="SVGID_22_"><use xlink:href="#SVGID_21_" overflow="visible"/></clipPath><g id="Filling_2_" clip-path="url(#SVGID_22_)"><symbol id="getter-class" viewBox="51 19 17 17"><path id="Public_11_" fill="#4DA6FF" d="M55 25.5a4.5 4.5 0 0 0 9 0h-9z" opacity=".349"/><g id="Public_12_" clip-path="url(#SVGID_22_)"><path fill="#4DA6FF" d="M59.5 20a5.5 5.5 0 1 0 .001 11.001A5.5 5.5 0 0 0 59.5 20zM56 24h3v-2.5l3.5 3.5H56v-1zm7 3h-3v2.5L56.5 26H63v1z"/></g></symbol><symbol id="getter-class-inherited" viewBox="68 19 17 17"><path id="Public_Inherited_21_" fill="#4DA6FF" d="M72 25.5a4.5 4.5 0 0 0 9 0h-9z" opacity=".349"/><g id="Public_Inherited_22_" clip-path="url(#SVGID_22_)"><path fill="#4DA6FF" d="M76.5 20a5.5 5.5 0 1 0 .001 11.001A5.5 5.5 0 0 0 76.5 20zM73 24h3v-2.5l3.5 3.5H73v-1zm7 3h-3v2.5L73.5 26H80v1z"/></g><path fill="#4DA6FF" d="M70 25.5a6.492 6.492 0 0 1 2.843-5.373A5.5 5.5 0 0 0 68.51 25.5a5.5 5.5 0 0 0 4.333 5.373A6.492 6.492 0 0 1 70 25.5z"/></symbol><symbol id="getter-class-protected" viewBox="85 19 17 17"><path id="Protected_21_" fill="#4DA6FF" d="M89 25.5a4.5 4.5 0 0 0 9 0h-9z" opacity=".349"/><g id="Protected_22_" clip-path="url(#SVGID_22_)"><path fill="#4DA6FF" d="M93.5 20a5.5 5.5 0 1 0 .001 11.001A5.5 5.5 0 0 0 93.5 20zM90 24h3v-2.5l3.5 3.5H90v-1zm7 3h-3v2.5L90.5 26H97v1z"/></g><path fill="#4DA6FF" d="M100 28h-1a2 2 0 0 0-2 2v3a1 1 0 0 0 1 1h3a1 1 0 0 0 1-1v-3a2 2 0 0 0-2-2zm-.5 5a.5.5 0 1 1 0-1 .5.5 0 0 1 0 1zm1.5-2h-3v-.5a1.5 1.5 0 0 1 3 0v.5z"/></symbol><symbol id="getter-class-protected-inherited" viewBox="102 19 17 17"><path id="Protected_Inherited_31_" fill="#4DA6FF" d="M106 25.5a4.5 4.5 0 0 0 9 0h-9z" opacity=".349"/><g id="Protected_Inherited_32_" clip-path="url(#SVGID_22_)"><path fill="#4DA6FF" d="M110.5 20a5.5 5.5 0 1 0 .001 11.001A5.5 5.5 0 0 0 110.5 20zm-3.5 4h3v-2.5l3.5 3.5H107v-1zm7 3h-3v2.5l-3.5-3.5h6.5v1z"/></g><path fill="#4DA6FF" d="M104 25.5a6.492 6.492 0 0 1 2.843-5.373 5.5 5.5 0 0 0-4.333 5.373 5.5 5.5 0 0 0 4.333 5.373A6.492 6.492 0 0 1 104 25.5zM117 28h-1a2 2 0 0 0-2 2v3a1 1 0 0 0 1 1h3a1 1 0 0 0 1-1v-3a2 2 0 0 0-2-2zm-.5 5a.5.5 0 1 1 0-1 .5.5 0 0 1 0 1zm1.5-2h-3v-.5a1.5 1.5 0 0 1 3 0v.5z"/></symbol><symbol id="getter-private" viewBox="119 19 17 17"><path id="Private_21_" fill="#A0A0A0" d="M123 25.5a4.5 4.5 0 0 0 9 0h-9z" opacity=".349"/><g id="Private_22_" clip-path="url(#SVGID_22_)"><path fill="#A0A0A0" d="M127.5 20a5.5 5.5 0 1 0 .001 11.001A5.5 5.5 0 0 0 127.5 20zm-3.5 4h3v-2.5l3.5 3.5H124v-1zm7 3h-3v2.5l-3.5-3.5h6.5v1z"/></g><path fill="#A0A0A0" d="M134 28h-1a2 2 0 0 0-2 2v3a1 1 0 0 0 1 1h3a1 1 0 0 0 1-1v-3a2 2 0 0 0-2-2zm-.5 5a.5.5 0 1 1 0-1 .5.5 0 0 1 0 1zm1.5-2h-3v-.5a1.5 1.5 0 0 1 3 0v.5z"/></symbol><symbol id="getter" viewBox="136 19 17 17"><path id="Global_11_" fill="#9600FF" d="M140 25.5a4.5 4.5 0 0 0 9 0h-9z" opacity=".349"/><g id="Global_12_" clip-path="url(#SVGID_22_)"><path fill="#9600FF" d="M144.5 20a5.5 5.5 0 1 0 .001 11.001A5.5 5.5 0 0 0 144.5 20zm-3.5 4h3v-2.5l3.5 3.5H141v-1zm7 3h-3v2.5l-3.5-3.5h6.5v1z"/></g></symbol><symbol id="getter-protected" viewBox="153 19 17 17"><path id="Global_Protected_21_" fill="#9600FF" d="M157 25.5a4.5 4.5 0 0 0 9 0h-9z" opacity=".349"/><g id="Global_Protected_22_" clip-path="url(#SVGID_22_)"><path fill="#9600FF" d="M161.5 20a5.5 5.5 0 1 0 .001 11.001A5.5 5.5 0 0 0 161.5 20zm-3.5 4h3v-2.5l3.5 3.5H158v-1zm7 3h-3v2.5l-3.5-3.5h6.5v1z"/></g><path fill="#9600FF" d="M168 28h-1a2 2 0 0 0-2 2v3a1 1 0 0 0 1 1h3a1 1 0 0 0 1-1v-3a2 2 0 0 0-2-2zm-.5 5a.5.5 0 1 1 0-1 .5.5 0 0 1 0 1zm1.5-2h-3v-.5a1.5 1.5 0 0 1 3 0v.5z"/></symbol><symbol id="getter-enum" viewBox="170 19 17 17"><path id="Enum_11_" fill="#C90" d="M174 25.5a4.5 4.5 0 0 0 9 0h-9z" opacity=".349"/><g id="Enum_12_" clip-path="url(#SVGID_22_)"><path fill="#C90" d="M178.5 20a5.5 5.5 0 1 0 .001 11.001A5.5 5.5 0 0 0 178.5 20zm-3.5 4h3v-2.5l3.5 3.5H175v-1zm7 3h-3v2.5l-3.5-3.5h6.5v1z"/></g></symbol><symbol id="getter-enum-protected" viewBox="187 19 17 17"><path id="Enum_Protected_21_" fill="#C90" d="M191 25.5a4.5 4.5 0 0 0 9 0h-9z" opacity=".349"/><g id="Enum_Protected_22_" clip-path="url(#SVGID_22_)"><path fill="#C90" d="M195.5 20a5.5 5.5 0 1 0 0 11 5.5 5.5 0 0 0 0-11zm-3.5 4h3v-2.5l3.5 3.5H192v-1zm7 3h-3v2.5l-3.5-3.5h6.5v1z"/></g><path fill="#C90" d="M202 28h-1a2 2 0 0 0-2 2v3a1 1 0 0 0 1 1h3a1 1 0 0 0 1-1v-3a2 2 0 0 0-2-2zm-.5 5a.5.5 0 1 1 0-1 .5.5 0 0 1 0 1zm1.5-2h-3v-.5a1.5 1.5 0 0 1 3 0v.5z"/></symbol><symbol id="getter-interface" viewBox="204 19 17 17"><path id="Interface_11_" fill="#7DA01F" d="m209.5 26 3.5 3.5V27h3v-1z" opacity=".349"/><g id="Interface_12_" clip-path="url(#SVGID_22_)"><path fill="#7DA01F" d="M212.5 19a6.5 6.5 0 1 0 0 13 6.5 6.5 0 0 0 0-13zm0 12a5.5 5.5 0 1 1 .001-11.001A5.5 5.5 0 0 1 212.5 31zm-.5-7h-3v1h6.5l-3.5-3.5V24z"/></g></symbol><symbol id="getter-interface-inherited" viewBox="221 19 17 17"><path id="Interface_Inherited_21_" fill="#7DA01F" d="m226.5 26 3.5 3.5V27h3v-1z" opacity=".349"/><g id="Interface_Inherited_22_" clip-path="url(#SVGID_22_)"><path fill="#7DA01F" d="M229.5 19a6.5 6.5 0 1 0 0 13 6.5 6.5 0 0 0 0-13zm0 12a5.5 5.5 0 1 1 .001-11.001A5.5 5.5 0 0 1 229.5 31zm-.5-7h-3v1h6.5l-3.5-3.5V24z"/></g><path fill="#7DA01F" d="M222 25.5a7.48 7.48 0 0 1 3.026-6.01 6.5 6.5 0 0 0 0 12.02A7.48 7.48 0 0 1 222 25.5z"/></symbol></g></g></g><g id="Property_1_"><g id="Base_56_"><defs><path id="SVGID_23_" d="M0 0v204h238V0H0zm103 16a2 2 0 0 1-2 2h-3a2 2 0 0 1-2-2v-4a2 2 0 0 1 2-2h3a2 2 0 0 1 2 2v4zm17 0a2 2 0 0 1-2 2h-3a2 2 0 0 1-2-2v-4a2 2 0 0 1 2-2h3a2 2 0 0 1 2 2v4zm17 0a2 2 0 0 1-2 2h-3a2 2 0 0 1-2-2v-4a2 2 0 0 1 2-2h3a2 2 0 0 1 2 2v4zm34 0a2 2 0 0 1-2 2h-3a2 2 0 0 1-2-2v-4a2 2 0 0 1 2-2h3a2 2 0 0 1 2 2v4zm34 0a2 2 0 0 1-2 2h-3a2 2 0 0 1-2-2v-4a2 2 0 0 1 2-2h3a2 2 0 0 1 2 2v4z"/></defs><clipPath id="SVGID_24_"><use xlink:href="#SVGID_23_" overflow="visible"/></clipPath><symbol id="property-class" viewBox="51 2 17 17"><g id="Public_13_" clip-path="url(#SVGID_24_)"><circle cx="59.5" cy="8.5" r="5.5" fill="#4DA6FF"/></g></symbol><symbol id="property-class-inherited" viewBox="68 2 17 17"><g id="Public_Inherited_24_" clip-path="url(#SVGID_24_)"><circle cx="76.5" cy="8.5" r="5.5" fill="#4DA6FF"/></g><path fill="#4DA6FF" d="M70 8.5a6.492 6.492 0 0 1 2.843-5.373A5.5 5.5 0 0 0 68.51 8.5a5.5 5.5 0 0 0 4.333 5.373A6.492 6.492 0 0 1 70 8.5z"/></symbol><symbol id="property-class-protected" viewBox="85 2 17 17"><g id="Protected_24_" clip-path="url(#SVGID_24_)"><circle cx="93.5" cy="8.5" r="5.5" fill="#4DA6FF"/></g><path fill="#4DA6FF" d="M100 11h-1a2 2 0 0 0-2 2v3a1 1 0 0 0 1 1h3a1 1 0 0 0 1-1v-3a2 2 0 0 0-2-2zm-.5 5a.5.5 0 1 1 0-1 .5.5 0 0 1 0 1zm1.5-2h-3v-.5a1.5 1.5 0 0 1 3 0v.5z"/></symbol><symbol id="property-class-protected-inherited" viewBox="102 2 17 17"><g id="Protected_Inherited_35_" clip-path="url(#SVGID_24_)"><circle cx="110.5" cy="8.5" r="5.5" fill="#4DA6FF"/></g><path fill="#4DA6FF" d="M104 8.5a6.492 6.492 0 0 1 2.843-5.373A5.5 5.5 0 0 0 102.51 8.5a5.5 5.5 0 0 0 4.333 5.373A6.492 6.492 0 0 1 104 8.5zM117 11h-1a2 2 0 0 0-2 2v3a1 1 0 0 0 1 1h3a1 1 0 0 0 1-1v-3a2 2 0 0 0-2-2zm-.5 5a.5.5 0 1 1 0-1 .5.5 0 0 1 0 1zm1.5-2h-3v-.5a1.5 1.5 0 0 1 3 0v.5z"/></symbol><symbol id="property-private" viewBox="119 2 17 17"><g id="Private_24_" clip-path="url(#SVGID_24_)"><circle cx="127.5" cy="8.5" r="5.5" fill="#A0A0A0"/></g><path fill="#A0A0A0" d="M134 11h-1a2 2 0 0 0-2 2v3a1 1 0 0 0 1 1h3a1 1 0 0 0 1-1v-3a2 2 0 0 0-2-2zm-.5 5a.5.5 0 1 1 0-1 .5.5 0 0 1 0 1zm1.5-2h-3v-.5a1.5 1.5 0 0 1 3 0v.5z"/></symbol><symbol id="property" viewBox="136 2 17 17"><g id="Global_13_" clip-path="url(#SVGID_24_)"><circle cx="144.5" cy="8.5" r="5.5" fill="#9600FF"/></g></symbol><symbol id="property-protected" viewBox="153 2 17 17"><g id="Global_Protected_24_" clip-path="url(#SVGID_24_)"><circle cx="161.5" cy="8.5" r="5.5" fill="#9600FF"/></g><path fill="#9600FF" d="M168 11h-1a2 2 0 0 0-2 2v3a1 1 0 0 0 1 1h3a1 1 0 0 0 1-1v-3a2 2 0 0 0-2-2zm-.5 5a.5.5 0 1 1 0-1 .5.5 0 0 1 0 1zm1.5-2h-3v-.5a1.5 1.5 0 0 1 3 0v.5z"/></symbol><symbol id="property-enum" viewBox="170 2 17 17"><g id="Enum_13_" clip-path="url(#SVGID_24_)"><circle cx="178.5" cy="8.5" r="5.5" fill="#C90"/></g></symbol><symbol id="property-enum-protected" viewBox="187 2 17 17"><g id="Enum_Protected_24_" clip-path="url(#SVGID_24_)"><circle cx="195.5" cy="8.5" r="5.5" fill="#C90"/></g><path fill="#C90" d="M202 11h-1a2 2 0 0 0-2 2v3a1 1 0 0 0 1 1h3a1 1 0 0 0 1-1v-3a2 2 0 0 0-2-2zm-.5 5a.5.5 0 1 1 0-1 .5.5 0 0 1 0 1zm1.5-2h-3v-.5a1.5 1.5 0 0 1 3 0v.5z"/></symbol><symbol id="property-interface" viewBox="204 2 17 17"><g id="Interface_13_" clip-path="url(#SVGID_24_)"><path fill="#7DA01F" d="M212.5 2a6.5 6.5 0 1 0 0 13 6.5 6.5 0 0 0 0-13zm0 12a5.5 5.5 0 1 1 .001-11.001A5.5 5.5 0 0 1 212.5 14z"/></g></symbol><symbol id="property-interface-inherited" viewBox="221 2 17 17"><g id="Interface_Inherited_24_" clip-path="url(#SVGID_24_)"><path fill="#7DA01F" d="M229.5 2a6.5 6.5 0 1 0 0 13 6.5 6.5 0 0 0 0-13zm0 12a5.5 5.5 0 1 1 .001-11.001A5.5 5.5 0 0 1 229.5 14z"/></g><path fill="#7DA01F" d="M222 8.5a7.48 7.48 0 0 1 3.026-6.01 6.5 6.5 0 0 0 0 12.02A7.48 7.48 0 0 1 222 8.5z"/></symbol></g></g></g><g id="Types_1_"><g id="Type_Alias_1_"><g id="Base_55_"><defs><path id="SVGID_25_" d="M0 0v204h238V0H0zm35 186a2 2 0 0 1-2 2h-3a2 2 0 0 1-2-2v-4a2 2 0 0 1 2-2h3a2 2 0 0 1 2 2v4zm17 0a2 2 0 0 1-2 2h-3a2 2 0 0 1-2-2v-4a2 2 0 0 1 2-2h3a2 2 0 0 1 2 2v4z"/></defs><clipPath id="SVGID_26_"><use xlink:href="#SVGID_25_" overflow="visible"/></clipPath><symbol id="type-alias" viewBox="0 170 17 17"><g id="Global_14_" clip-path="url(#SVGID_26_)"><path fill="#9600FF" d="M3.994 173.993v2.997h.51c.044-.143.122-.269.233-.492.112-.224.241-.436.387-.635.146-.199.305-.378.478-.535s.339-.245.5-.263c.204-.022.418-.036.642-.043s.411-.01.562-.01h.423v7.604a.844.844 0 0 1-.113.463.706.706 0 0 1-.354.264c-.106.043-.3.078-.58.106s-.548.047-.686.057v.501h5.011v-.501a4.867 4.867 0 0 1-.715-.092 4.489 4.489 0 0 1-.551-.135.667.667 0 0 1-.357-.299.907.907 0 0 1-.102-.428v-7.54h.423c.195 0 .406.004.634.013s.418.022.569.04c.16.022.327.109.499.263.173.152.332.331.478.535.141.195.269.402.382.621.115.22.194.351.237.506h.503v-2.997H3.994z"/></g></symbol><symbol id="type-alias-protected" viewBox="17 170 17 17"><g id="Protected_26_" clip-path="url(#SVGID_26_)"><path fill="#9600FF" d="M20.994 173.993v2.997h.51c.044-.143.122-.269.233-.492.112-.224.241-.436.387-.635s.305-.378.478-.535.339-.245.499-.263c.205-.022.419-.036.643-.043.223-.007.41-.01.561-.01h.424v7.604a.844.844 0 0 1-.113.463.706.706 0 0 1-.354.264c-.107.043-.301.078-.58.106s-.548.047-.686.057v.501h5.01v-.501a4.84 4.84 0 0 1-.714-.092 4.521 4.521 0 0 1-.552-.135.671.671 0 0 1-.357-.299.92.92 0 0 1-.102-.428v-7.54h.423c.194 0 .406.004.635.013.228.009.417.022.568.04.16.022.327.109.499.263.173.152.332.331.478.535.142.195.27.402.383.621.114.22.193.351.237.506h.503v-2.997h-9.013z"/></g><path fill="#9600FF" d="M32 181h-1a2 2 0 0 0-2 2v3a1 1 0 0 0 1 1h3a1 1 0 0 0 1-1v-3a2 2 0 0 0-2-2zm-.5 5a.5.5 0 1 1 0-1 .5.5 0 0 1 0 1zm1.5-2h-3v-.5a1.5 1.5 0 0 1 3 0v.5z"/></symbol><symbol id="type-alias-private" viewBox="34 170 17 17"><g id="Private_26_" clip-path="url(#SVGID_26_)"><path fill="#A0A0A0" d="M37.994 173.993v2.997h.51c.044-.143.122-.269.233-.492.112-.224.241-.436.387-.635s.305-.378.478-.535.339-.245.499-.263c.205-.022.419-.036.643-.043.223-.007.41-.01.561-.01h.424v7.604a.844.844 0 0 1-.113.463.706.706 0 0 1-.354.264c-.107.043-.301.078-.58.106s-.548.047-.686.057v.501h5.01v-.501a4.84 4.84 0 0 1-.714-.092 4.521 4.521 0 0 1-.552-.135.671.671 0 0 1-.357-.299.92.92 0 0 1-.102-.428v-7.54h.423c.194 0 .406.004.635.013.228.009.417.022.568.04.16.022.327.109.499.263.173.152.332.331.478.535.142.195.27.402.383.621.114.22.193.351.237.506h.503v-2.997h-9.013z"/></g><path fill="#A0A0A0" d="M49 181h-1a2 2 0 0 0-2 2v3a1 1 0 0 0 1 1h3a1 1 0 0 0 1-1v-3a2 2 0 0 0-2-2zm-.5 5a.5.5 0 1 1 0-1 .5.5 0 0 1 0 1zm1.5-2h-3v-.5a1.5 1.5 0 0 1 3 0v.5z"/></symbol></g></g><g id="Signature_1_"><g id="Base_54_"><defs><path id="SVGID_27_" d="M0 0v204h238V0H0zm35 169a2 2 0 0 1-2 2h-3a2 2 0 0 1-2-2v-4a2 2 0 0 1 2-2h3a2 2 0 0 1 2 2v4zm17 0a2 2 0 0 1-2 2h-3a2 2 0 0 1-2-2v-4a2 2 0 0 1 2-2h3a2 2 0 0 1 2 2v4z"/></defs><clipPath id="SVGID_28_"><use xlink:href="#SVGID_27_" overflow="visible"/></clipPath><symbol id="signature" viewBox="0 153 17 17"><g id="Global_15_" clip-path="url(#SVGID_28_)"><path fill="#A0A0A0" d="M8.5 155a6.5 6.5 0 1 0 0 13 6.5 6.5 0 0 0 0-13zm0 12a5.5 5.5 0 1 1 0-11 5.5 5.5 0 0 1 0 11zM7 165l4.5-3.5L7 158v7z"/></g></symbol><symbol id="signature-protected" viewBox="17 153 17 17"><g id="Protected_27_" clip-path="url(#SVGID_28_)"><path fill="#A0A0A0" d="M25.5 155a6.5 6.5 0 1 0 0 13 6.5 6.5 0 0 0 0-13zm0 12a5.5 5.5 0 1 1 .001-11.001A5.5 5.5 0 0 1 25.5 167zm-1.5-2 4.5-3.5L24 158v7z"/></g><path fill="#A0A0A0" d="M32 164h-1a2 2 0 0 0-2 2v3a1 1 0 0 0 1 1h3a1 1 0 0 0 1-1v-3a2 2 0 0 0-2-2zm-.5 5a.5.5 0 1 1 0-1 .5.5 0 0 1 0 1zm1.5-2h-3v-.5a1.5 1.5 0 0 1 3 0v.5z"/></symbol><symbol id="signature-private" viewBox="34 153 17 17"><g id="Private_27_" clip-path="url(#SVGID_28_)"><path fill="#A0A0A0" d="M42.5 155a6.5 6.5 0 1 0 0 13 6.5 6.5 0 0 0 0-13zm0 12a5.5 5.5 0 1 1 .001-11.001A5.5 5.5 0 0 1 42.5 167zm-1.5-2 4.5-3.5L41 158v7z"/></g><path fill="#A0A0A0" d="M49 164h-1a2 2 0 0 0-2 2v3a1 1 0 0 0 1 1h3a1 1 0 0 0 1-1v-3a2 2 0 0 0-2-2zm-.5 5a.5.5 0 1 1 0-1 .5.5 0 0 1 0 1zm1.5-2h-3v-.5a1.5 1.5 0 0 1 3 0v.5z"/></symbol></g></g><g id="Enum_Member_1_"><g id="Base_53_"><defs><path id="SVGID_29_" d="M0 0v204h238V0H0zm35 152a2 2 0 0 1-2 2h-3a2 2 0 0 1-2-2v-4a2 2 0 0 1 2-2h3a2 2 0 0 1 2 2v4zm17 0a2 2 0 0 1-2 2h-3a2 2 0 0 1-2-2v-4a2 2 0 0 1 2-2h3a2 2 0 0 1 2 2v4z"/><path id="SVGID_31_" d="M10.5 140 4 143.25V147l3.5 1.75 6.5-3.25v-3.75L10.5 140zM7 147.375l-2-1v-2l2 1v2zM5.75 143.5l4.75-2.375 1.75.875-4.75 2.375-1.75-.875zm7.25 1.375-5 2.5v-2l5-2.5v2z"/><path id="SVGID_33_" d="m27.5 140-6.5 3.25V147l3.5 1.75 6.5-3.25v-3.75L27.5 140zm-3.5 7.375-2-1v-2l2 1v2zm-1.25-3.875 4.75-2.375 1.75.875-4.75 2.375-1.75-.875zm7.25 1.375-5 2.5v-2l5-2.5v2z"/><path id="SVGID_35_" d="m44.5 140-6.5 3.25V147l3.5 1.75 6.5-3.25v-3.75L44.5 140zm-3.5 7.375-2-1v-2l2 1v2zm-1.25-3.875 4.75-2.375 1.75.875-4.75 2.375-1.75-.875zm7.25 1.375-5 2.5v-2l5-2.5v2z"/></defs><clipPath id="SVGID_30_"><use xlink:href="#SVGID_29_" overflow="visible"/></clipPath><clipPath id="SVGID_32_"><use xlink:href="#SVGID_31_" overflow="visible"/></clipPath><clipPath id="SVGID_34_"><use xlink:href="#SVGID_33_" overflow="visible"/></clipPath><clipPath id="SVGID_36_"><use xlink:href="#SVGID_35_" overflow="visible"/></clipPath><symbol id="enumeration-member" viewBox="0 136 17 17"><g id="Global_34_" clip-path="url(#SVGID_30_)"><g id="Base_14_" clip-path="url(#SVGID_32_)"><path fill="#C90" d="M0 136h17v17H0z"/></g></g></symbol><symbol id="enumeration-member-protected" viewBox="17 136 17 17"><g id="Protected_56_" clip-path="url(#SVGID_30_)"><g id="Base_15_" clip-path="url(#SVGID_34_)"><path fill="#C90" d="M17 136h17v17H17z"/></g></g><path fill="#C90" d="M32 147h-1a2 2 0 0 0-2 2v3a1 1 0 0 0 1 1h3a1 1 0 0 0 1-1v-3a2 2 0 0 0-2-2zm-.5 5a.5.5 0 1 1 0-1 .5.5 0 0 1 0 1zm1.5-2h-3v-.5a1.5 1.5 0 0 1 3 0v.5z"/></symbol><symbol id="enumeration-member-private" viewBox="34 136 17 17"><g id="Private_56_" clip-path="url(#SVGID_30_)"><g id="Base_16_" clip-path="url(#SVGID_36_)"><path fill="#A0A0A0" d="M34 136h17v17H34z"/></g></g><path fill="#A0A0A0" d="M49 147h-1a2 2 0 0 0-2 2v3a1 1 0 0 0 1 1h3a1 1 0 0 0 1-1v-3a2 2 0 0 0-2-2zm-.5 5a.5.5 0 1 1 0-1 .5.5 0 0 1 0 1zm1.5-2h-3v-.5a1.5 1.5 0 0 1 3 0v.5z"/></symbol></g></g><g id="Enumeration_1_"><g id="Base_52_"><defs><path id="SVGID_37_" d="M0 0v204h238V0H0zm35 135a2 2 0 0 1-2 2h-3a2 2 0 0 1-2-2v-4a2 2 0 0 1 2-2h3a2 2 0 0 1 2 2v4zm17 0a2 2 0 0 1-2 2h-3a2 2 0 0 1-2-2v-4a2 2 0 0 1 2-2h3a2 2 0 0 1 2 2v4z"/><path id="SVGID_39_" d="M10.5 119.75 4 123v10.25L7.5 135l6.5-3.25V121.5l-3.5-1.75zM7 133.625l-2-1v-2l2 1v2zm0-3.25-2-1v-2l2 1v2zm0-3.25-2-1v-2l2 1v2zm-1.25-3.875 4.75-2.375 1.75.875-4.75 2.375-1.75-.875zm7.25 7.875-5 2.5v-2l5-2.5v2zm0-3.25-5 2.5v-2l5-2.5v2zm0-3.25-5 2.5v-2l5-2.5v2z"/><path id="SVGID_41_" d="M27.5 119.75 21 123v10.25l3.5 1.75 6.5-3.25V121.5l-3.5-1.75zM24 133.625l-2-1v-2l2 1v2zm0-3.25-2-1v-2l2 1v2zm0-3.25-2-1v-2l2 1v2zm-1.25-3.875 4.75-2.375 1.75.875-4.75 2.375-1.75-.875zm7.25 7.875-5 2.5v-2l5-2.5v2zm0-3.25-5 2.5v-2l5-2.5v2zm0-3.25-5 2.5v-2l5-2.5v2z"/><path id="SVGID_43_" d="M44.5 119.75 38 123v10.25l3.5 1.75 6.5-3.25V121.5l-3.5-1.75zM41 133.625l-2-1v-2l2 1v2zm0-3.25-2-1v-2l2 1v2zm0-3.25-2-1v-2l2 1v2zm-1.25-3.875 4.75-2.375 1.75.875-4.75 2.375-1.75-.875zm7.25 7.875-5 2.5v-2l5-2.5v2zm0-3.25-5 2.5v-2l5-2.5v2zm0-3.25-5 2.5v-2l5-2.5v2z"/></defs><clipPath id="SVGID_38_"><use xlink:href="#SVGID_37_" overflow="visible"/></clipPath><clipPath id="SVGID_40_"><use xlink:href="#SVGID_39_" overflow="visible"/></clipPath><clipPath id="SVGID_42_"><use xlink:href="#SVGID_41_" overflow="visible"/></clipPath><clipPath id="SVGID_44_"><use xlink:href="#SVGID_43_" overflow="visible"/></clipPath><symbol id="enumeration" viewBox="0 119 17 17"><g id="Global_33_" clip-path="url(#SVGID_38_)"><g id="Base_18_" clip-path="url(#SVGID_40_)"><path fill="#C90" d="M0 119h17v17H0z"/></g></g></symbol><symbol id="enumeration-protected" viewBox="17 119 17 17"><g id="Protected_55_" clip-path="url(#SVGID_38_)"><g id="Base_19_" clip-path="url(#SVGID_42_)"><path fill="#C90" d="M17 119h17v17H17z"/></g></g><path fill="#C90" d="M32 130h-1a2 2 0 0 0-2 2v3a1 1 0 0 0 1 1h3a1 1 0 0 0 1-1v-3a2 2 0 0 0-2-2zm-.5 5a.5.5 0 1 1 0-1 .5.5 0 0 1 0 1zm1.5-2h-3v-.5a1.5 1.5 0 0 1 3 0v.5z"/></symbol><symbol id="enumeration-private" viewBox="34 119 17 17"><g id="Private_55_" clip-path="url(#SVGID_38_)"><g id="Base_20_" clip-path="url(#SVGID_44_)"><path fill="#A0A0A0" d="M34 119h17v17H34z"/></g></g><path fill="#A0A0A0" d="M49 130h-1a2 2 0 0 0-2 2v3a1 1 0 0 0 1 1h3a1 1 0 0 0 1-1v-3a2 2 0 0 0-2-2zm-.5 5a.5.5 0 1 1 0-1 .5.5 0 0 1 0 1zm1.5-2h-3v-.5a1.5 1.5 0 0 1 3 0v.5z"/></symbol></g></g><g id="Module_1_"><g id="Base_51_"><defs><path id="SVGID_45_" d="M0 0v204h238V0H0zm35 118a2 2 0 0 1-2 2h-3a2 2 0 0 1-2-2v-4a2 2 0 0 1 2-2h3a2 2 0 0 1 2 2v4zm17 0a2 2 0 0 1-2 2h-3a2 2 0 0 1-2-2v-4a2 2 0 0 1 2-2h3a2 2 0 0 1 2 2v4z"/><path id="SVGID_47_" d="M8.5 103.75 2 107v7l6.5 3.25L15 114v-7l-6.5-3.25zm0 1.125 1.75.875-1.75.875-1.75-.875 1.75-.875zm-3.5 9.5-2-1v-2l2 1v2zm0-3.25-2-1v-2l2 1v2zm-1.25-3.875 1.875-.938 1.75.875-1.875.938-1.75-.875zM8 115.875l-2-1v-2l2 1v2zm0-3.25-2-1v-2l2 1v2zm-1.375-3.937 1.875-.938 1.875.938-1.875.937-1.875-.937zM11 114.875l-2 1v-2l2-1v2zm0-3.25-2 1v-2l2-1v2zm-1.375-4.437 1.75-.875 1.875.938-1.75.875-1.875-.938zM14 113.375l-2 1v-2l2-1v2zm0-3.25-2 1v-2l2-1v2z"/><path id="SVGID_49_" d="M25.5 103.75 19 107v7l6.5 3.25L32 114v-7l-6.5-3.25zm0 1.125 1.75.875-1.75.875-1.75-.875 1.75-.875zm-3.5 9.5-2-1v-2l2 1v2zm0-3.25-2-1v-2l2 1v2zm-1.25-3.875 1.875-.938 1.75.875-1.875.938-1.75-.875zm4.25 8.625-2-1v-2l2 1v2zm0-3.25-2-1v-2l2 1v2zm-1.375-3.937 1.875-.938 1.875.938-1.875.938-1.875-.938zM28 114.875l-2 1v-2l2-1v2zm0-3.25-2 1v-2l2-1v2zm-1.375-4.437 1.75-.875 1.875.938-1.75.875-1.875-.938zM31 113.375l-2 1v-2l2-1v2zm0-3.25-2 1v-2l2-1v2z"/><path id="SVGID_51_" d="M42.5 103.75 36 107v7l6.5 3.25L49 114v-7l-6.5-3.25zm0 1.125 1.75.875-1.75.875-1.75-.875 1.75-.875zm-3.5 9.5-2-1v-2l2 1v2zm0-3.25-2-1v-2l2 1v2zm-1.25-3.875 1.875-.938 1.75.875-1.875.938-1.75-.875zm4.25 8.625-2-1v-2l2 1v2zm0-3.25-2-1v-2l2 1v2zm-1.375-3.937 1.875-.938 1.875.938-1.875.938-1.875-.938zM45 114.875l-2 1v-2l2-1v2zm0-3.25-2 1v-2l2-1v2zm-1.375-4.437 1.75-.875 1.875.938-1.75.875-1.875-.938zM48 113.375l-2 1v-2l2-1v2zm0-3.25-2 1v-2l2-1v2z"/></defs><clipPath id="SVGID_46_"><use xlink:href="#SVGID_45_" overflow="visible"/></clipPath><clipPath id="SVGID_48_"><use xlink:href="#SVGID_47_" overflow="visible"/></clipPath><clipPath id="SVGID_50_"><use xlink:href="#SVGID_49_" overflow="visible"/></clipPath><clipPath id="SVGID_52_"><use xlink:href="#SVGID_51_" overflow="visible"/></clipPath><symbol id="module" viewBox="0 102 17 17"><g id="Global_32_" clip-path="url(#SVGID_46_)"><g id="Base_22_" clip-path="url(#SVGID_48_)"><path fill="#9600FF" d="M0 102h17v17H0z"/></g></g></symbol><symbol id="module-protected" viewBox="17 102 17 17"><g id="Protected_54_" clip-path="url(#SVGID_46_)"><g id="Base_23_" clip-path="url(#SVGID_50_)"><path fill="#9600FF" d="M17 102h17v17H17z"/></g></g><path fill="#9600FF" d="M32 113h-1a2 2 0 0 0-2 2v3a1 1 0 0 0 1 1h3a1 1 0 0 0 1-1v-3a2 2 0 0 0-2-2zm-.5 5a.5.5 0 1 1 0-1 .5.5 0 0 1 0 1zm1.5-2h-3v-.5a1.5 1.5 0 0 1 3 0v.5z"/></symbol><symbol id="module-private" viewBox="34 102 17 17"><g id="Private_54_" clip-path="url(#SVGID_46_)"><g id="Base_24_" clip-path="url(#SVGID_52_)"><path fill="#A0A0A0" d="M34 102h17v17H34z"/></g></g><path fill="#A0A0A0" d="M49 113h-1a2 2 0 0 0-2 2v3a1 1 0 0 0 1 1h3a1 1 0 0 0 1-1v-3a2 2 0 0 0-2-2zm-.5 5a.5.5 0 1 1 0-1 .5.5 0 0 1 0 1zm1.5-2h-3v-.5a1.5 1.5 0 0 1 3 0v.5z"/></symbol></g></g><g id="Interface_TypeParameter_1_"><g id="Base_50_"><defs><path id="SVGID_53_" d="M0 0v98.5L2.5 96h2L8 99.5v2.5H0v102h238V0H0zm25 102h-8v-3.5l2.5-2.5h2l3.5 3.5v2.5zm17 0h-7.277A1.99 1.99 0 0 1 33 103h-3a2 2 0 0 1-2-2v-4a2 2 0 0 1 2-2h3a2 2 0 0 1 2 2v.5l1.5-1.5h2l3.5 3.5v2.5zm10-1a2 2 0 0 1-2 2h-3a2 2 0 0 1-2-2v-4a2 2 0 0 1 2-2h3a2 2 0 0 1 2 2v4z"/><path id="SVGID_55_" d="M8.5 86.75 2 90v7l6.5 3.25L15 97v-7l-6.5-3.25zM8 98.875l-5-2.5v-5.25l5 2.5v5.25zM3.75 90.25l4.75-2.375 4.75 2.375-4.75 2.375-4.75-2.375zM14 96.375l-5 2.5v-5.25l5-2.5v5.25z"/><path id="SVGID_57_" d="M25.5 86.75 19 90v7l6.5 3.25L32 97v-7l-6.5-3.25zM25 98.875l-5-2.5v-5.25l5 2.5v5.25zm-4.25-8.625 4.75-2.375 4.75 2.375-4.75 2.375-4.75-2.375zM31 96.375l-5 2.5v-5.25l5-2.5v5.25z"/><path id="SVGID_59_" d="M42.5 86.75 36 90v7l6.5 3.25L49 97v-7l-6.5-3.25zM42 98.875l-5-2.5v-5.25l5 2.5v5.25zm-4.25-8.625 4.75-2.375 4.75 2.375-4.75 2.375-4.75-2.375zM48 96.375l-5 2.5v-5.25l5-2.5v5.25z"/></defs><clipPath id="SVGID_54_"><use xlink:href="#SVGID_53_" overflow="visible"/></clipPath><clipPath id="SVGID_56_"><use xlink:href="#SVGID_55_" overflow="visible"/></clipPath><clipPath id="SVGID_58_"><use xlink:href="#SVGID_57_" overflow="visible"/></clipPath><clipPath id="SVGID_60_"><use xlink:href="#SVGID_59_" overflow="visible"/></clipPath><symbol id="interface-type-param" viewBox="0 85 17 17"><g id="Global_31_" clip-path="url(#SVGID_54_)"><g id="Base_26_" clip-path="url(#SVGID_56_)"><path fill="#7DA01F" d="M0 85h17v17H0z"/></g></g><path fill="#7DA01F" d="M6.581 99.46 4.5 97.379l-.707.707L5.207 99.5l-1.414 1.414.707.707L6.621 99.5l-.04-.04zM2.5 97.379.379 99.5l2.121 2.121.707-.707L1.793 99.5l1.414-1.414-.707-.707z"/></symbol><symbol id="interface-type-param-protected" viewBox="17 85 17 17"><g id="Protected_53_" clip-path="url(#SVGID_54_)"><g id="Base_27_" clip-path="url(#SVGID_58_)"><path fill="#7DA01F" d="M17 85h17v17H17z"/></g></g><path fill="#7DA01F" d="M19.5 97.379 17.379 99.5l2.121 2.121.707-.707-1.414-1.414 1.414-1.414-.707-.707zm2 0-.707.707 1.414 1.414-1.414 1.414.707.707 2.121-2.121-2.121-2.121zM32 96h-1a2 2 0 0 0-2 2v3a1 1 0 0 0 1 1h3a1 1 0 0 0 1-1v-3a2 2 0 0 0-2-2zm-.5 5a.5.5 0 1 1 0-1 .5.5 0 0 1 0 1zm1.5-2h-3v-.5a1.5 1.5 0 0 1 3 0v.5z"/></symbol><symbol id="interface-type-param-private" viewBox="34 85 17 17"><g id="Private_53_" clip-path="url(#SVGID_54_)"><g id="Base_28_" clip-path="url(#SVGID_60_)"><path fill="#A0A0A0" d="M34 85h17v17H34z"/></g></g><path fill="#A0A0A0" d="M36.5 97.379 34.379 99.5l2.121 2.121.707-.707-1.414-1.414 1.414-1.414-.707-.707zm2 0-.707.707 1.414 1.414-1.414 1.414.707.707 2.121-2.121-2.121-2.121zM49 96h-1a2 2 0 0 0-2 2v3a1 1 0 0 0 1 1h3a1 1 0 0 0 1-1v-3a2 2 0 0 0-2-2zm-.5 5a.5.5 0 1 1 0-1 .5.5 0 0 1 0 1zm1.5-2h-3v-.5a1.5 1.5 0 0 1 3 0v.5z"/></symbol></g></g><g id="Interface_15_"><g id="Base_49_"><defs><path id="SVGID_61_" d="M0 0v204h238V0H0zm35 84a2 2 0 0 1-2 2h-3a2 2 0 0 1-2-2v-4a2 2 0 0 1 2-2h3a2 2 0 0 1 2 2v4zm17 0a2 2 0 0 1-2 2h-3a2 2 0 0 1-2-2v-4a2 2 0 0 1 2-2h3a2 2 0 0 1 2 2v4z"/><path id="SVGID_63_" d="M8.5 69.75 2 73v7l6.5 3.25L15 80v-7l-6.5-3.25zM8 81.875l-5-2.5v-5.25l5 2.5v5.25zM3.75 73.25l4.75-2.375 4.75 2.375-4.75 2.375-4.75-2.375zM14 79.375l-5 2.5v-5.25l5-2.5v5.25z"/><path id="SVGID_65_" d="M25.5 69.75 19 73v7l6.5 3.25L32 80v-7l-6.5-3.25zM25 81.875l-5-2.5v-5.25l5 2.5v5.25zm-4.25-8.625 4.75-2.375 4.75 2.375-4.75 2.375-4.75-2.375zM31 79.375l-5 2.5v-5.25l5-2.5v5.25z"/><path id="SVGID_67_" d="M42.5 69.75 36 73v7l6.5 3.25L49 80v-7l-6.5-3.25zM42 81.875l-5-2.5v-5.25l5 2.5v5.25zm-4.25-8.625 4.75-2.375 4.75 2.375-4.75 2.375-4.75-2.375zM48 79.375l-5 2.5v-5.25l5-2.5v5.25z"/></defs><clipPath id="SVGID_62_"><use xlink:href="#SVGID_61_" overflow="visible"/></clipPath><clipPath id="SVGID_64_"><use xlink:href="#SVGID_63_" overflow="visible"/></clipPath><clipPath id="SVGID_66_"><use xlink:href="#SVGID_65_" overflow="visible"/></clipPath><clipPath id="SVGID_68_"><use xlink:href="#SVGID_67_" overflow="visible"/></clipPath><symbol id="interface" viewBox="0 68 17 17"><g id="Global_30_" clip-path="url(#SVGID_62_)"><g id="Base_30_" clip-path="url(#SVGID_64_)"><path fill="#7DA01F" d="M0 68h17v17H0z"/></g></g></symbol><symbol id="interface-protected" viewBox="17 68 17 17"><g id="Protected_52_" clip-path="url(#SVGID_62_)"><g id="Base_31_" clip-path="url(#SVGID_66_)"><path fill="#7DA01F" d="M17 68h17v17H17z"/></g></g><path fill="#7DA01F" d="M32 79h-1a2 2 0 0 0-2 2v3a1 1 0 0 0 1 1h3a1 1 0 0 0 1-1v-3a2 2 0 0 0-2-2zm-.5 5a.5.5 0 1 1 0-1 .5.5 0 0 1 0 1zm1.5-2h-3v-.5a1.5 1.5 0 0 1 3 0v.5z"/></symbol><symbol id="interface-private" viewBox="34 68 17 17"><g id="Private_52_" clip-path="url(#SVGID_62_)"><g id="Base_32_" clip-path="url(#SVGID_68_)"><path fill="#A0A0A0" d="M34 68h17v17H34z"/></g></g><path fill="#A0A0A0" d="M49 79h-1a2 2 0 0 0-2 2v3a1 1 0 0 0 1 1h3a1 1 0 0 0 1-1v-3a2 2 0 0 0-2-2zm-.5 5a.5.5 0 1 1 0-1 .5.5 0 0 1 0 1zm1.5-2h-3v-.5a1.5 1.5 0 0 1 3 0v.5z"/></symbol></g></g><g id="Class_TypeParameter_1_"><g id="Base_48_"><defs><path id="SVGID_69_" d="M0 0v64.5L2.5 62h2L8 65.5V68H0v136h238V0H0zm25 68h-8v-3.5l2.5-2.5h2l3.5 3.5V68zm17 0h-7.277c-.347.595-.984 1-1.723 1h-3a2 2 0 0 1-2-2v-4a2 2 0 0 1 2-2h3a2 2 0 0 1 2 2v.5l1.5-1.5h2l3.5 3.5V68zm10-1a2 2 0 0 1-2 2h-3a2 2 0 0 1-2-2v-4a2 2 0 0 1 2-2h3a2 2 0 0 1 2 2v4z"/><path id="SVGID_71_" d="M8.5 52.75 2 56v7l6.5 3.25L15 63v-7z"/><path id="SVGID_73_" d="M25.5 52.75 19 56v7l6.5 3.25L32 63v-7z"/><path id="SVGID_75_" d="M42.5 52.75 36 56v7l6.5 3.25L49 63v-7z"/></defs><clipPath id="SVGID_70_"><use xlink:href="#SVGID_69_" overflow="visible"/></clipPath><clipPath id="SVGID_72_"><use xlink:href="#SVGID_71_" overflow="visible"/></clipPath><clipPath id="SVGID_74_"><use xlink:href="#SVGID_73_" overflow="visible"/></clipPath><clipPath id="SVGID_76_"><use xlink:href="#SVGID_75_" overflow="visible"/></clipPath><symbol id="class-type-param" viewBox="0 51 17 17"><g id="Global_29_" clip-path="url(#SVGID_70_)"><g id="Base_34_" clip-path="url(#SVGID_72_)"><path fill="#4DA6FF" d="M0 51h17v17H0z"/></g><g id="Highlight_Kopie_2" clip-path="url(#SVGID_72_)"><path fill="#A6D3FF" d="M0 55v13h8.5v-8.75z"/></g><g id="Shadow_Kopie_2" clip-path="url(#SVGID_72_)"><path fill="#26537F" d="M8.5 59.25V68H17V55z"/></g></g><path fill="#4DA6FF" d="M2.5 63.379.379 65.5 2.5 67.621l.707-.707L1.793 65.5l1.414-1.414-.707-.707zm4.081 2.08L4.5 63.379l-.707.707L5.207 65.5l-1.414 1.414.707.707L6.621 65.5l-.04-.041z"/></symbol><symbol id="class-type-param-protected" viewBox="17 51 17 17"><g id="Protected_51_" clip-path="url(#SVGID_70_)"><g id="Rechteck_2" clip-path="url(#SVGID_74_)"><path fill="#4DA6FF" d="M17 51h17v17H17z"/></g><g id="Highlight_Kopie_7" clip-path="url(#SVGID_74_)"><path fill="#A6D3FF" d="M17 55v13h8.5v-8.75z"/></g><g id="Shadow_Kopie_7" clip-path="url(#SVGID_74_)"><path fill="#26537F" d="M25.5 59.25V68H34V55z"/></g></g><path fill="#4DA6FF" d="M19.5 63.379 17.379 65.5l2.121 2.121.707-.707-1.414-1.414 1.414-1.414-.707-.707zm4.081 2.08-2.081-2.08-.707.707 1.414 1.414-1.414 1.414.707.707 2.121-2.121-.04-.041zM32 62h-1a2 2 0 0 0-2 2v3a1 1 0 0 0 1 1h3a1 1 0 0 0 1-1v-3a2 2 0 0 0-2-2zm-.5 5a.5.5 0 1 1 0-1 .5.5 0 0 1 0 1zm1.5-2h-3v-.5a1.5 1.5 0 0 1 3 0v.5z"/></symbol><symbol id="class-type-param-private" viewBox="34 51 17 17"><g id="Private_51_" clip-path="url(#SVGID_70_)"><g id="Base_35_" clip-path="url(#SVGID_76_)"><path fill="#A0A0A0" d="M34 51h17v17H34z"/></g><g id="Highlight_Kopie_8" clip-path="url(#SVGID_76_)"><path fill="#D0D0D0" d="M34 55v13h8.5v-8.75z"/></g><g id="Shadow_Kopie_8" clip-path="url(#SVGID_76_)"><path fill="#505050" d="M42.5 59.25V68H51V55z"/></g></g><path fill="#A0A0A0" d="M49 62h-1a2 2 0 0 0-2 2v3a1 1 0 0 0 1 1h3a1 1 0 0 0 1-1v-3a2 2 0 0 0-2-2zm-.5 5a.5.5 0 1 1 0-1 .5.5 0 0 1 0 1zm1.5-2h-3v-.5a1.5 1.5 0 0 1 3 0v.5zM36.5 63.379 34.379 65.5l2.121 2.121.707-.707-1.414-1.414 1.414-1.414-.707-.707zm4.081 2.08-2.081-2.08-.707.707 1.414 1.414-1.414 1.414.707.707 2.121-2.121-.04-.041z"/></symbol></g></g><g id="Class_1_"><g id="Base_47_"><defs><path id="SVGID_77_" d="M0 0v204h238V0H0zm35 50a2 2 0 0 1-2 2h-3a2 2 0 0 1-2-2v-4a2 2 0 0 1 2-2h3a2 2 0 0 1 2 2v4zm17 0a2 2 0 0 1-2 2h-3a2 2 0 0 1-2-2v-4a2 2 0 0 1 2-2h3a2 2 0 0 1 2 2v4z"/><path id="SVGID_79_" d="M8.5 35.75 2 39v7l6.5 3.25L15 46v-7z"/><path id="SVGID_81_" d="M25.5 35.75 19 39v7l6.5 3.25L32 46v-7z"/><path id="SVGID_83_" d="M42.5 35.75 36 39v7l6.5 3.25L49 46v-7z"/></defs><clipPath id="SVGID_78_"><use xlink:href="#SVGID_77_" overflow="visible"/></clipPath><clipPath id="SVGID_80_"><use xlink:href="#SVGID_79_" overflow="visible"/></clipPath><clipPath id="SVGID_82_"><use xlink:href="#SVGID_81_" overflow="visible"/></clipPath><clipPath id="SVGID_84_"><use xlink:href="#SVGID_83_" overflow="visible"/></clipPath><symbol id="class" viewBox="0 34 17 17"><g id="Global_28_" clip-path="url(#SVGID_78_)"><g id="Rechteck_1" clip-path="url(#SVGID_80_)"><path fill="#4DA6FF" d="M0 34h17v17H0z"/></g><g id="Highlight_Kopie" clip-path="url(#SVGID_80_)"><path fill="#A6D3FF" d="M0 38v13h8.5v-8.75z"/></g><g id="Shadow_Kopie" clip-path="url(#SVGID_80_)"><path fill="#26537F" d="M8.5 42.25V51H17V38z"/></g></g></symbol><symbol id="class-protected" viewBox="17 34 17 17"><g id="Protected_50_" clip-path="url(#SVGID_78_)"><g id="Base_37_" clip-path="url(#SVGID_82_)"><path fill="#4DA6FF" d="M17 34h17v17H17z"/></g><g id="Highlight_Kopie_5" clip-path="url(#SVGID_82_)"><path fill="#A6D3FF" d="M17 38v13h8.5v-8.75z"/></g><g id="Shadow_Kopie_5" clip-path="url(#SVGID_82_)"><path fill="#26537F" d="M25.5 42.25V51H34V38z"/></g></g><path fill="#4DA6FF" d="M32 45h-1a2 2 0 0 0-2 2v3a1 1 0 0 0 1 1h3a1 1 0 0 0 1-1v-3a2 2 0 0 0-2-2zm-.5 5a.5.5 0 1 1 0-1 .5.5 0 0 1 0 1zm1.5-2h-3v-.5a1.5 1.5 0 0 1 3 0v.5z"/></symbol><symbol id="class-private" viewBox="34 34 17 17"><g id="Private_50_" clip-path="url(#SVGID_78_)"><g id="Base_38_" clip-path="url(#SVGID_84_)"><path fill="#A0A0A0" d="M34 34h17v17H34z"/></g><g id="Highlight_Kopie_6" clip-path="url(#SVGID_84_)"><path fill="#D0D0D0" d="M34 38v13h8.5v-8.75z"/></g><g id="Shadow_Kopie_6" clip-path="url(#SVGID_84_)"><path fill="#505050" d="M42.5 42.25V51H51V38z"/></g></g><path fill="#A0A0A0" d="M49 45h-1a2 2 0 0 0-2 2v3a1 1 0 0 0 1 1h3a1 1 0 0 0 1-1v-3a2 2 0 0 0-2-2zm-.5 5a.5.5 0 1 1 0-1 .5.5 0 0 1 0 1zm1.5-2h-3v-.5a1.5 1.5 0 0 1 3 0v.5z"/></symbol></g></g><g id="Object_1_"><g id="Base_46_"><defs><path id="SVGID_85_" d="M0 0v204h238V0H0zm35 33a2 2 0 0 1-2 2h-3a2 2 0 0 1-2-2v-4a2 2 0 0 1 2-2h3a2 2 0 0 1 2 2v4zm17 0a2 2 0 0 1-2 2h-3a2 2 0 0 1-2-2v-4a2 2 0 0 1 2-2h3a2 2 0 0 1 2 2v4z"/><path id="SVGID_87_" d="M8.5 18.75 2 22v7l6.5 3.25L15 29v-7z"/><path id="SVGID_89_" d="M25.5 18.75 19 22v7l6.5 3.25L32 29v-7z"/><path id="SVGID_91_" d="M42.5 18.75 36 22v7l6.5 3.25L49 29v-7z"/></defs><clipPath id="SVGID_86_"><use xlink:href="#SVGID_85_" overflow="visible"/></clipPath><clipPath id="SVGID_88_"><use xlink:href="#SVGID_87_" overflow="visible"/></clipPath><clipPath id="SVGID_90_"><use xlink:href="#SVGID_89_" overflow="visible"/></clipPath><clipPath id="SVGID_92_"><use xlink:href="#SVGID_91_" overflow="visible"/></clipPath><symbol id="object" viewBox="0 17 17 17"><g id="Global_27_" clip-path="url(#SVGID_86_)"><g id="Base_40_" clip-path="url(#SVGID_88_)"><path fill="#9600FF" d="M0 17h17v17H0z"/></g><g id="Highlight" clip-path="url(#SVGID_88_)"><path fill="#CB80FF" d="M0 21v13h8.5v-8.75z"/></g><g id="Shadow_12_" clip-path="url(#SVGID_88_)"><path fill="#7000BF" d="M8.5 25.25V34H17V21z"/></g></g></symbol><symbol id="object-protected" viewBox="17 17 17 17"><g id="Protected_49_" clip-path="url(#SVGID_86_)"><g id="Base_41_" clip-path="url(#SVGID_90_)"><path fill="#9600FF" d="M17 17h17v17H17z"/></g><g id="Highlight_Kopie_3" clip-path="url(#SVGID_90_)"><path fill="#CB80FF" d="M17 21v13h8.5v-8.75z"/></g><g id="Shadow_Kopie_3" clip-path="url(#SVGID_90_)"><path fill="#7000BF" d="M25.5 25.25V34H34V21z"/></g></g><path fill="#9600FF" d="M32 28h-1a2 2 0 0 0-2 2v3a1 1 0 0 0 1 1h3a1 1 0 0 0 1-1v-3a2 2 0 0 0-2-2zm-.5 5a.5.5 0 1 1 0-1 .5.5 0 0 1 0 1zm1.5-2h-3v-.5a1.5 1.5 0 0 1 3 0v.5z"/></symbol><symbol id="object-private" viewBox="34 17 17 17"><g id="Private_49_" clip-path="url(#SVGID_86_)"><g id="Base_42_" clip-path="url(#SVGID_92_)"><path fill="#A0A0A0" d="M34 17h17v17H34z"/></g><g id="Highlight_Kopie_4" clip-path="url(#SVGID_92_)"><path fill="#D0D0D0" d="M34 21v13h8.5v-8.75z"/></g><g id="Shadow_Kopie_4" clip-path="url(#SVGID_92_)"><path fill="#505050" d="M42.5 25.25V34H51V21z"/></g></g><path fill="#A0A0A0" d="M49 28h-1a2 2 0 0 0-2 2v3a1 1 0 0 0 1 1h3a1 1 0 0 0 1-1v-3a2 2 0 0 0-2-2zm-.5 5a.5.5 0 1 1 0-1 .5.5 0 0 1 0 1zm1.5-2h-3v-.5a1.5 1.5 0 0 1 3 0v.5z"/></symbol></g></g><g id="Undefined_1_"><g id="Base_45_"><defs><path id="SVGID_93_" d="M0 0v204h238V0H0zm35 16a2 2 0 0 1-2 2h-3a2 2 0 0 1-2-2v-4a2 2 0 0 1 2-2h3a2 2 0 0 1 2 2v4zm17 0a2 2 0 0 1-2 2h-3a2 2 0 0 1-2-2v-4a2 2 0 0 1 2-2h3a2 2 0 0 1 2 2v4z"/></defs><clipPath id="SVGID_94_"><use xlink:href="#SVGID_93_" overflow="visible"/></clipPath><symbol id="variable" viewBox="0 0 17 17"><g id="Global_26_" clip-path="url(#SVGID_94_)"><circle cx="8.5" cy="8.5" r="5.5" fill="#9600FF"/></g></symbol><symbol id="variable-protected" viewBox="17 0 17 17"><g id="Protected_47_" clip-path="url(#SVGID_94_)"><circle cx="25.5" cy="8.5" r="5.5" fill="#9600FF"/></g><path fill="#9600FF" d="M32 11h-1a2 2 0 0 0-2 2v3a1 1 0 0 0 1 1h3a1 1 0 0 0 1-1v-3a2 2 0 0 0-2-2zm-.5 5a.5.5 0 1 1 0-1 .5.5 0 0 1 0 1zm1.5-2h-3v-.5a1.5 1.5 0 0 1 3 0v.5z"/></symbol><symbol id="variable-private" viewBox="34 0 17 17"><g id="Private_47_" clip-path="url(#SVGID_94_)"><circle cx="42.5" cy="8.5" r="5.5" fill="#A0A0A0"/></g><path fill="#A0A0A0" d="M49 11h-1a2 2 0 0 0-2 2v3a1 1 0 0 0 1 1h3a1 1 0 0 0 1-1v-3a2 2 0 0 0-2-2zm-.5 5a.5.5 0 1 1 0-1 .5.5 0 0 1 0 1zm1.5-2h-3v-.5a1.5 1.5 0 0 1 3 0v.5z"/></symbol></g></g></g></svg>